<svg xmlns="http://www.w3.org/2000/svg" viewBox="0 0 100 23"><g transform="matrix(1.58 0 0 1 -29 0)"  ><g style=""   ><g transform="matrix(1 0 0 1 50 11.5)"  ><g style=""   ><g transform="matrix(0.91 0 0 1.44 -42.5 -0.58)"  ><path style="stroke: none; stroke-width: 1; stroke-dasharray: none; stroke-linecap: butt; stroke-dashoffset: 0; stroke-linejoin: miter; stroke-miterlimit: 4; fill: rgb(255,255,255); fill-rule: nonzero; opacity: 1;"  transform=" translate(-8.25, -7.59)" d="M 7.12279 0.204834 L 9.46732 0.204834 L 11.4013 9.61613 L 11.4477 9.61613 L 13.0361 0.204834 L 15.7113 0.204834 L 12.7872 14.9822 L 10.3962 14.9822 L 8.31921 5.21924 L 8.27276 5.21924 L 6.33881 14.9822 L 3.94412 14.9822 L 0.785889 0.204834 L 3.4611 0.204834 L 5.21113 9.61613 L 5.25758 9.61613 L 7.12279 0.204834 Z" stroke-linecap="round" /></g><g transform="matrix(0.91 0 0 1.44 -31.03 -0.58)"  ><path style="stroke: none; stroke-width: 1; stroke-dasharray: none; stroke-linecap: butt; stroke-dashoffset: 0; stroke-linejoin: miter; stroke-miterlimit: 4; fill: rgb(255,255,255); fill-rule: nonzero; opacity: 1;"  transform=" translate(-20.87, -7.59)" d="M 16.3773 0.204834 L 20.6131 0.204834 C 23.6766 0.204834 25.0346 1.59671 25.0346 4.11465 C 25.0346 5.38435 24.4364 6.71348 23.0542 7.20551 C 24.5051 7.77845 25.3579 8.80213 25.3579 10.7042 C 25.3579 13.1412 24.1373 14.9822 20.8899 14.9822 L 16.3773 14.9822 L 16.3773 0.204834 Z M 19.2346 6.26273 L 20.2694 6.26273 C 21.3525 6.26273 22.181 5.60229 22.181 4.38048 C 22.181 3.01006 21.5828 2.29348 20.3233 2.29348 L 19.242 2.29348 L 19.2346 6.26273 Z M 19.2346 12.8952 L 20.4273 12.8952 C 21.947 12.8952 22.5006 12.1175 22.5006 10.6233 C 22.5006 9.12905 21.8596 8.35138 20.1542 8.35138 L 19.2253 8.35138 L 19.2346 12.8952 Z" stroke-linecap="round" /></g><g transform="matrix(0.91 0 0 1.44 -22.07 -0.58)"  ><path style="stroke: none; stroke-width: 1; stroke-dasharray: none; stroke-linecap: butt; stroke-dashoffset: 0; stroke-linejoin: miter; stroke-miterlimit: 4; fill: rgb(255,255,255); fill-rule: nonzero; opacity: 1;"  transform=" translate(-30.73, -7.59)" d="M 26.7451 14.9822 L 26.7451 0.204834 L 34.3918 0.204834 L 34.3918 2.41566 L 29.5987 2.41566 L 29.5987 6.22311 L 33.2827 6.22311 L 33.2827 8.43393 L 29.5987 8.43393 L 29.5987 12.7714 L 34.7094 12.7714 L 34.7094 14.9822 L 26.7451 14.9822 Z" stroke-linecap="round" /></g><g transform="matrix(0.91 0 0 1.44 -14.05 -0.58)"  ><path style="stroke: none; stroke-width: 1; stroke-dasharray: none; stroke-linecap: butt; stroke-dashoffset: 0; stroke-linejoin: miter; stroke-miterlimit: 4; fill: rgb(255,255,255); fill-rule: nonzero; opacity: 1;"  transform=" translate(-39.55, -7.59)" d="M 36.0918 2.41566 L 36.0918 0.204834 L 43.6511 0.204834 L 43.6511 2.6204 L 38.3936 12.7714 L 43.6511 12.7714 L 43.6511 14.9822 L 35.4471 14.9822 L 35.4471 12.5683 L 40.766 2.41566 L 36.0918 2.41566 Z" stroke-linecap="round" /></g><g transform="matrix(0.91 0 0 1.44 -5.28 -0.58)"  ><path style="stroke: none; stroke-width: 1; stroke-dasharray: none; stroke-linecap: butt; stroke-dashoffset: 0; stroke-linejoin: miter; stroke-miterlimit: 4; fill: rgb(255,255,255); fill-rule: nonzero; opacity: 1;"  transform=" translate(-49.19, -7.59)" d="M 50.6448 5.13824 L 50.6448 3.99237 C 50.6448 2.74249 50.0001 2.21083 49.2626 2.21083 C 48.1108 2.21083 47.7429 2.74249 47.7429 3.84873 L 47.7429 11.3398 C 47.7429 12.4444 48.1145 12.976 49.2626 12.976 C 50.2992 12.976 50.6448 12.4444 50.6448 11.49 L 50.6448 9.70189 L 53.4965 9.70189 L 53.4965 11.4009 C 53.4965 13.4879 52.1143 15.1869 49.2589 15.1869 C 46.2641 15.1869 44.8838 13.4879 44.8838 11.4009 L 44.8838 3.78764 C 44.8838 1.69899 46.2641 0 49.2589 0 C 52.118 0 53.4965 1.84594 53.4965 4.05346 L 53.4965 5.13824 L 50.6448 5.13824 Z" stroke-linecap="round" /></g><g transform="matrix(0.91 0 0 1.44 4.21 -0.58)"  ><path style="stroke: none; stroke-width: 1; stroke-dasharray: none; stroke-linecap: butt; stroke-dashoffset: 0; stroke-linejoin: miter; stroke-miterlimit: 4; fill: rgb(255,255,255); fill-rule: nonzero; opacity: 1;"  transform=" translate(-59.63, -7.59)" d="M 55.2516 14.9822 L 55.2516 0.204834 L 58.107 0.204834 L 58.107 6.22311 L 61.1463 6.22311 L 61.1463 0.204834 L 64.0018 0.204834 L 64.0018 14.9822 L 61.1463 14.9822 L 61.1463 8.43393 L 58.107 8.43393 L 58.107 14.9822 L 55.2516 14.9822 Z" stroke-linecap="round" /></g><g transform="matrix(0.91 0 0 1.44 11.3 -0.58)"  ><path style="stroke: none; stroke-width: 1; stroke-dasharray: none; stroke-linecap: butt; stroke-dashoffset: 0; stroke-linejoin: miter; stroke-miterlimit: 4; fill: rgb(255,255,255); fill-rule: nonzero; opacity: 1;"  transform=" translate(-67.43, -7.59)" d="M 66.0049 14.9822 L 66.0049 0.204834 L 68.8603 0.204834 L 68.8603 14.9822 L 66.0049 14.9822 Z" stroke-linecap="round" /></g><g transform="matrix(0.91 0 0 1.44 18.34 -0.58)"  ><path style="stroke: none; stroke-width: 1; stroke-dasharray: none; stroke-linecap: butt; stroke-dashoffset: 0; stroke-linejoin: miter; stroke-miterlimit: 4; fill: rgb(255,255,255); fill-rule: nonzero; opacity: 1;"  transform=" translate(-75.17, -7.59)" d="M 76.6207 5.13824 L 76.6207 3.99237 C 76.6207 2.74249 75.976 2.21083 75.2385 2.21083 C 74.0867 2.21083 73.7188 2.74249 73.7188 3.84873 L 73.7188 11.3398 C 73.7188 12.4444 74.0904 12.976 75.2385 12.976 C 76.2751 12.976 76.6207 12.4444 76.6207 11.49 L 76.6207 9.70189 L 79.4761 9.70189 L 79.4761 11.4009 C 79.4761 13.4879 78.0939 15.1869 75.2385 15.1869 C 72.2456 15.1869 70.8634 13.4879 70.8634 11.4009 L 70.8634 3.78764 C 70.8634 1.69899 72.2456 0 75.2385 0 C 78.0939 0 79.4761 1.84263 79.4761 4.05346 L 79.4761 5.13824 L 76.6207 5.13824 Z" stroke-linecap="round" /></g><g transform="matrix(0.91 0 0 1.44 27.23 -0.58)"  ><path style="stroke: none; stroke-width: 1; stroke-dasharray: none; stroke-linecap: butt; stroke-dashoffset: 0; stroke-linejoin: miter; stroke-miterlimit: 4; fill: rgb(255,255,255); fill-rule: nonzero; opacity: 1;"  transform=" translate(-84.96, -7.59)" d="M 82.8836 14.9822 L 80.1211 14.9822 L 83.1827 0.204834 L 86.7292 0.204834 L 89.7927 14.9822 L 87.0302 14.9822 L 86.523 11.7081 L 83.3908 11.7081 L 82.8836 14.9822 Z M 83.8125 9.49724 L 86.1162 9.49724 L 84.9866 3.15205 L 84.9402 3.15205 L 83.8125 9.49724 Z" stroke-linecap="round" /></g><g transform="matrix(0.91 0 0 1.44 36 -0.58)"  ><path style="stroke: none; stroke-width: 1; stroke-dasharray: none; stroke-linecap: butt; stroke-dashoffset: 0; stroke-linejoin: miter; stroke-miterlimit: 4; fill: rgb(255,255,255); fill-rule: nonzero; opacity: 1;"  transform=" translate(-94.6, -7.59)" d="M 94.2359 7.49106 L 98.912 7.49106 L 98.912 14.9821 L 97.5261 14.9821 L 96.9966 13.8775 C 96.1439 14.7774 95.4528 15.1869 94.117 15.1869 C 91.8598 15.1869 90.2937 13.7537 90.2937 11.4009 L 90.2937 3.78764 C 90.2937 1.69899 91.6759 0 94.4849 0 C 97.3403 0 98.7726 1.84594 98.7726 4.05346 L 98.7726 4.99459 L 96.0547 4.99459 C 96.0547 2.78376 95.5494 2.21083 94.4198 2.21083 C 93.7288 2.21083 93.1547 2.57903 93.1547 3.82726 L 93.1547 11.4223 C 93.1547 12.3651 93.4984 12.9777 94.4886 12.9777 C 95.6404 12.9777 96.0547 12.4048 96.0547 10.932 L 96.0547 9.49716 L 94.2359 9.49716 L 94.2359 7.49106 Z" stroke-linecap="round" /></g><g transform="matrix(0.91 0 0 1.44 45.49 -0.58)"  ><path style="stroke: none; stroke-width: 1; stroke-dasharray: none; stroke-linecap: butt; stroke-dashoffset: 0; stroke-linejoin: miter; stroke-miterlimit: 4; fill: rgb(255,255,255); fill-rule: nonzero; opacity: 1;"  transform=" translate(-105.04, -7.59)" d="M 100.663 3.78764 C 100.663 1.69899 102.045 0 105.04 0 C 108.035 0 109.419 1.69899 109.419 3.78764 L 109.419 11.4009 C 109.419 13.4879 108.036 15.1869 105.044 15.1869 C 102.051 15.1869 100.667 13.4879 100.667 11.4009 L 100.663 3.78764 Z M 103.518 11.3398 C 103.518 12.4444 103.89 12.976 105.04 12.976 C 106.19 12.976 106.559 12.4444 106.559 11.3398 L 106.559 3.84873 C 106.559 2.74249 106.188 2.21083 105.04 2.21083 C 103.892 2.21083 103.518 2.74249 103.518 3.84873 L 103.518 11.3398 Z" stroke-linecap="round" /></g></g></g></g></g></svg>