<svg xmlns="http://www.w3.org/2000/svg" viewBox="0 0 17 17"><g transform="matrix(1 0 0 1 0 0)"  ><g style=""   ><g transform="matrix(0.01 0 0 0.01 8.5 8.5)"  ><path style="stroke: none; stroke-width: 1; stroke-dasharray: none; stroke-linecap: butt; stroke-dashoffset: 0; stroke-linejoin: miter; stroke-miterlimit: 4; fill: rgb(255,255,255); fill-rule: nonzero; opacity: 1;"  transform=" translate(-600, -613.18)" d="M 714.163 519.284 L 1160.89 0 L 1055.03 0 L 667.137 450.887 L 357.328 0 L 0 0 L 468.492 681.821 L 0 1226.37 L 105.866 1226.37 L 515.491 750.218 L 842.672 1226.37 L 1200 1226.37 L 714.137 519.284 L 714.163 519.284 Z M 569.165 687.828 L 521.697 619.934 L 144.011 79.6944 L 306.615 79.6944 L 611.412 515.685 L 658.88 583.579 L 1055.08 1150.3 L 892.476 1150.3 L 569.165 687.854 L 569.165 687.828 Z" stroke-linecap="round" /></g></g></g></svg>