<svg xmlns="http://www.w3.org/2000/svg" viewBox="0 0 17 17"><g transform="matrix(1 0 0 1 0 0)"  ><g style=""   ><g transform="matrix(1 0 0 1 8.5 8.5)"  ><g style=""   ><g transform="matrix(0 0 0 0 0 0)"  ><path style="stroke: none; stroke-width: 1; stroke-dasharray: none; stroke-linecap: butt; stroke-dashoffset: 0; stroke-linejoin: miter; stroke-miterlimit: 4; fill: rgb(255,255,255); fill-rule: nonzero; opacity: 1;"  transform=" translate(-2519.2, -2519.2)" d="M 2519.21 5038.41 C 1835.0300000000002 5038.41 1749.24 5035.51 1480.54 5023.25 C 1212.4 5011.02 1029.27 4968.43 869.0269999999999 4906.16 C 703.367 4841.78 562.8789999999999 4755.639999999999 422.82399999999996 4615.59 C 282.77299999999997 4475.54 196.63299999999995 4335.04 132.25399999999996 4169.38 C 69.98099999999997 4009.1400000000003 27.393999999999963 3826.01 15.155999999999963 3557.87 C 2.898 3289.17 0 3203.38 0 2519.2 C 0 1835.0299999999997 2.898 1749.2399999999998 15.156 1480.5399999999997 C 27.395000000000003 1212.3999999999996 69.98100000000001 1029.2699999999998 132.254 869.0309999999997 C 196.63299999999998 703.3709999999998 282.773 562.8789999999997 422.82399999999996 422.8199999999997 C 562.8789999999999 282.7699999999997 703.367 196.6289999999997 869.0269999999999 132.24999999999972 C 1029.27 69.98 1212.4 27.39 1480.54 15.16 C 1749.24 2.902 1835.03 0 2519.21 0 C 3203.38 0 3289.17 2.902 3557.87 15.16 C 3826.0099999999998 27.39 4009.14 69.98 4169.38 132.25 C 4335.04 196.62900000000002 4475.53 282.77 4615.59 422.82 C 4755.64 562.879 4841.78 703.371 4906.16 869.031 C 4968.43 1029.27 5011.0199999999995 1212.4 5023.25 1480.54 C 5035.51 1749.24 5038.41 1835.03 5038.41 2519.2 C 5038.41 3203.3799999999997 5035.51 3289.17 5023.25 3557.87 C 5011.02 3826.0099999999998 4968.43 4009.14 4906.16 4169.38 C 4841.78 4335.04 4755.639999999999 4475.54 4615.59 4615.59 C 4475.53 4755.64 4335.04 4841.78 4169.38 4906.16 C 4009.1400000000003 4968.43 3826.01 5011.0199999999995 3557.87 5023.25 C 3289.17 5035.51 3203.38 5038.41 2519.21 5038.41 z M 2519.21 4584.5 C 3191.86 4584.5 3271.54 4581.93 3537.1800000000003 4569.81 C 3782.8 4558.610000000001 3916.1900000000005 4517.570000000001 4004.96 4483.070000000001 C 4122.55 4437.370000000001 4206.47 4382.780000000001 4294.62 4294.630000000001 C 4382.78 4206.470000000001 4437.37 4122.550000000001 4483.07 4004.960000000001 C 4517.57 3916.190000000001 4558.61 3782.800000000001 4569.8099999999995 3537.180000000001 C 4581.929999999999 3271.5400000000013 4584.499999999999 3191.860000000001 4584.499999999999 2519.200000000001 C 4584.499999999999 1846.550000000001 4581.929999999999 1766.8700000000013 4569.8099999999995 1501.2300000000012 C 4558.61 1255.610000000001 4517.57 1122.2200000000012 4483.07 1033.4500000000012 C 4437.37 915.8590000000012 4382.78 831.9410000000012 4294.62 743.7890000000011 C 4206.47 655.6290000000012 4122.55 601.0390000000011 4004.96 555.340000000001 C 3916.19 520.840000000001 3782.8 479.80100000000107 3537.1800000000003 468.60200000000106 C 3271.5800000000004 456.48000000000104 3191.9100000000003 453.91000000000105 2519.21 453.91000000000105 C 1846.5 453.91000000000105 1766.8400000000001 456.48000000000104 1501.23 468.60200000000106 C 1255.6100000000001 479.80100000000107 1122.22 520.840000000001 1033.45 555.340000000001 C 915.859 601.039000000001 831.941 655.629000000001 743.789 743.7890000000011 C 655.637 831.9410000000012 601.039 915.8590000000011 555.3399999999999 1033.4500000000012 C 520.8399999999999 1122.2200000000012 479.80499999999995 1255.6100000000013 468.5979999999999 1501.2300000000012 C 456.4769999999999 1766.8700000000013 453.9099999999999 1846.550000000001 453.9099999999999 2519.200000000001 C 453.9099999999999 3191.860000000001 456.4769999999999 3271.5400000000013 468.5979999999999 3537.180000000001 C 479.8049999999999 3782.800000000001 520.8399999999999 3916.1900000000014 555.3399999999999 4004.960000000001 C 601.0389999999999 4122.550000000001 655.6329999999999 4206.470000000001 743.7849999999999 4294.620000000001 C 831.9409999999998 4382.780000000001 915.8589999999999 4437.370000000001 1033.4499999999998 4483.070000000001 C 1122.2199999999998 4517.570000000001 1255.61 4558.610000000001 1501.2299999999998 4569.81 C 1766.87 4581.93 1846.5499999999997 4584.5 2519.21 4584.5" stroke-linecap="round" /></g><g transform="matrix(0 0 0 0 0.6 -0.6)"  ><path style="stroke: none; stroke-width: 1; stroke-dasharray: none; stroke-linecap: butt; stroke-dashoffset: 0; stroke-linejoin: miter; stroke-miterlimit: 4; fill: rgb(255,255,255); fill-rule: nonzero; opacity: 1;"  transform=" translate(-2695.91, -2695.91)" d="M 2519.21 1679.47 C 2055.4300000000003 1679.47 1679.47 2055.43 1679.47 2519.2 C 1679.47 2982.9799999999996 2055.43 3358.9399999999996 2519.21 3358.9399999999996 C 2982.98 3358.9399999999996 3358.94 2982.9799999999996 3358.94 2519.2 C 3358.94 2055.43 2982.98 1679.4699999999998 2519.21 1679.4699999999998 z M 2519.21 3812.8500000000004 C 1804.74 3812.8500000000004 1225.56 3233.6700000000005 1225.56 2519.2000000000003 C 1225.56 1804.7400000000002 1804.7399999999998 1225.5600000000002 2519.21 1225.5600000000002 C 3233.67 1225.5600000000002 3812.8500000000004 1804.7400000000002 3812.8500000000004 2519.2000000000003 C 3812.8500000000004 3233.67 3233.6700000000005 3812.8500000000004 2519.21 3812.8500000000004 M 4166.27 3863.96 C 4166.27 3697 4030.9200000000005 3561.66 3863.9600000000005 3561.66 C 3697.0100000000007 3561.66 3561.6600000000003 3697 3561.6600000000003 3863.96 C 3561.6600000000003 4030.92 3697.01 4166.27 3863.9600000000005 4166.27 C 4030.9200000000005 4166.27 4166.27 4030.9200000000005 4166.27 3863.9600000000005" stroke-linecap="round" /></g></g></g></g></g></svg>