<svg xmlns="http://www.w3.org/2000/svg" viewBox="0 0 14 14"><g transform="matrix(1 0 0 1 0 0)"  ><g style=""   ><g transform="matrix(1 0 0 1 7 7)"  ><path style="stroke: none; stroke-width: 1; stroke-dasharray: none; stroke-linecap: butt; stroke-dashoffset: 0; stroke-linejoin: miter; stroke-miterlimit: 4; fill: rgb(100,98,98); fill-rule: nonzero; opacity: 1;"  transform=" translate(-7.33, -7)" d="M 6.66675 10.3333 L 8.00008 10.3333 L 8.00008 6.33334 L 6.66675 6.33334 L 6.66675 10.3333 Z M 7.33341 5 C 7.5223 5 7.68064 4.93611 7.80841 4.80834 C 7.93619 4.68056 8.00008 4.52222 8.00008 4.33334 C 8.00008 4.14445 7.93619 3.98611 7.80841 3.85834 C 7.68064 3.73056 7.5223 3.66667 7.33341 3.66667 C 7.14453 3.66667 6.98619 3.73056 6.85841 3.85834 C 6.73064 3.98611 6.66675 4.14445 6.66675 4.33334 C 6.66675 4.52222 6.73064 4.68056 6.85841 4.80834 C 6.98619 4.93611 7.14453 5 7.33341 5 Z M 7.33341 13.6667 C 6.41119 13.6667 5.54453 13.4917 4.73341 13.1417 C 3.9223 12.7917 3.21675 12.3167 2.61675 11.7167 C 2.01675 11.1167 1.54175 10.4111 1.19175 9.6 C 0.841748 8.78889 0.666748 7.92222 0.666748 7 C 0.666748 6.07778 0.841748 5.21111 1.19175 4.4 C 1.54175 3.58889 2.01675 2.88334 2.61675 2.28334 C 3.21675 1.68334 3.9223 1.20834 4.73341 0.858336 C 5.54453 0.508336 6.41119 0.333336 7.33341 0.333336 C 8.25564 0.333336 9.1223 0.508336 9.93341 0.858336 C 10.7445 1.20834 11.4501 1.68334 12.0501 2.28334 C 12.6501 2.88334 13.1251 3.58889 13.4751 4.4 C 13.8251 5.21111 14.0001 6.07778 14.0001 7 C 14.0001 7.92222 13.8251 8.78889 13.4751 9.6 C 13.1251 10.4111 12.6501 11.1167 12.0501 11.7167 C 11.4501 12.3167 10.7445 12.7917 9.93341 13.1417 C 9.1223 13.4917 8.25564 13.6667 7.33341 13.6667 Z M 7.33341 12.3333 C 8.8223 12.3333 10.0834 11.8167 11.1167 10.7833 C 12.1501 9.75 12.6667 8.48889 12.6667 7 C 12.6667 5.51111 12.1501 4.25 11.1167 3.21667 C 10.0834 2.18334 8.8223 1.66667 7.33341 1.66667 C 5.84453 1.66667 4.58341 2.18334 3.55008 3.21667 C 2.51675 4.25 2.00008 5.51111 2.00008 7 C 2.00008 8.48889 2.51675 9.75 3.55008 10.7833 C 4.58341 11.8167 5.84453 12.3333 7.33341 12.3333 Z" stroke-linecap="round" /></g></g></g></svg>