<svg xmlns="http://www.w3.org/2000/svg" viewBox="0 0 16 16"><g transform="matrix(1 0 0 1 0 0)"  ><g style=""   ><g transform="matrix(0.03 0 0 0.03 8 8)"  ><path style="stroke: none; stroke-width: 1; stroke-dasharray: none; stroke-linecap: butt; stroke-dashoffset: 0; stroke-linejoin: miter; stroke-miterlimit: 4; fill: rgb(42,42,42); fill-rule: nonzero; opacity: 1;"  transform=" translate(-640.1, -400)" d="M 754.7 468.7 L 732.4000000000001 446.4 C 756.7 413.09999999999997 769.9000000000001 373 770.1000000000001 331.7 C 770.1000000000001 222.2 681.3000000000002 133.39999999999998 571.8000000000002 133.39999999999998 C 462.3000000000002 133.39999999999998 373.50000000000017 222.2 373.50000000000017 331.7 C 373.50000000000017 441.2 462.1 530 571.7 530 C 612.9000000000001 529.8 653 516.6 686.4000000000001 492.3 L 708.7 514.6 L 861.4000000000001 666.6 L 906.7 621.3000000000001 L 754.7 468.70000000000005 z M 571.7 468.7 C 495.90000000000003 468.7 434.40000000000003 407.2 434.40000000000003 331.4 C 434.40000000000003 255.59999999999997 495.8 194 571.7 194 C 647.6000000000001 194 709 255.5 709 331.3 C 709.2 407 648 468.4 572.3 468.6 C 572.0999999999999 468.70000000000005 571.9 468.70000000000005 571.6999999999999 468.70000000000005 z" stroke-linecap="round" /></g></g></g></svg>