<svg xmlns="http://www.w3.org/2000/svg" viewBox="0 0 24 17"><g transform="matrix(1 0 0 1 0 0)"  ><g style=""   ><g transform="matrix(0.05 0 0 0.05 12 8.5)"  ><path style="stroke: none; stroke-width: 1; stroke-dasharray: none; stroke-linecap: butt; stroke-dashoffset: 0; stroke-linejoin: miter; stroke-miterlimit: 4; fill: rgb(255,255,255); fill-rule: nonzero; opacity: 1;"  transform=" translate(-231.28, -162.69)" d="M 234.28 1.691 C 180.788 1.691 101.75 4.931 78.09200000000001 5.7219999999999995 C 52.396 8.02 42.884 9.366 28.811 21.41 C 7.368 40.48 2.28 77.954 2.28 135.285 L 2.28 189.84699999999998 C 2.28 255.28599999999997 10.969999999999999 288.53099999999995 25.28 300.691 C 41.797 314.861 52.687 315.993 63.686 317.691 C 67.956 318.337 98.176 323.691 232.28 323.691 C 315.906 323.691 387.78700000000003 319.741 395.217 318.78499999999997 C 407.162 317.277 424.32099999999997 315.08899999999994 437.28 300.691 C 456.46299999999997 278.888 460.28 242.69199999999998 460.28 190.25399999999996 L 460.28 126.69 C 460.28 92.747 458.38899999999995 44.774 437.28 24.689999999999998 C 421.289 11.153999999999998 415.43199999999996 7.322999999999997 382.342 5.658999999999999 C 372.984 5.196999999999999 291.322 1.689999999999999 234.27999999999997 1.689999999999999 z M 184.78 98.691 L 308.28 162.441 L 184.77999999999997 226.691 L 184.77999999999997 98.691 z" stroke-linecap="round" /></g></g></g></svg>