<svg version="1.1" id="Layer_1" xmlns="http://www.w3.org/2000/svg" xmlns:xlink="http://www.w3.org/1999/xlink" x="0px" y="0px" viewBox="0 0 270 98.2" style="enable-background:new 0 0 270 98.2;" xml:space="preserve">
    <title>CST_</title>
    <path fill="#221F1F" d="M101.4,86.6c17.4,0,25.9-10.5,25.9-21.8c0-15.7-13.5-20.4-23.6-24.5c-6.1-2.6-10.9-5-10.9-9.5
        c0-3.2,2.2-5.6,6.6-5.6c5.3,0,9.2,3.5,12.4,9.7l14.3-7.9c-4.9-9.9-13.1-17-26.2-17c-14.6,0-25.2,8.6-25.2,21.6
        c0,15.6,12.5,20.2,22.3,24.1c6.6,2.6,12.1,4.9,12.1,9.8c0,3.9-2.6,6.4-7.8,6.4c-6.5,0-11.4-5.2-14.4-10.6L72,68.9
        C77.3,79.1,85.9,86.6,101.4,86.6"></path>
    <polygon fill="#D0232A" points="160.9,35.2 168.5,10.2 176.1,35.2 201.6,29.3 183.8,48.4 201.6,67.5 176.1,61.6 168.5,86.6 160.9,61.6 
        135.4,67.5 153.2,48.4 135.4,29.3 "></polygon>
    <path fill="#221F1F" d="M38.8,86.5c18.1,0,24.9-12,27.5-27.1l-17.5-2.8c-1.6,10.9-4,14.8-10,14.8c-7.6,0-10.9-7.9-10.9-23
        S31,25.8,38.6,25.8c5.9,0,8,4.3,9.4,13.8l17.5-3.1C63.6,20,56.6,10,39.3,10S9.4,21,9.4,48.2S21.5,86.5,38.8,86.5"></path>
    <path fill="#221F1F" d="M225.7,85.2h18.6V26.9h16.9V11.3h-52.3v15.6h16.9v58.3H225.7z"></path>
</svg>