<svg xmlns="http://www.w3.org/2000/svg" viewBox="0 0 200 43"><g transform="matrix(1.22 0 0 1 -22 0)"  ><g style=""   ><g transform="matrix(1 0 0 1 100 21.5)"  ><g style=""   ><g transform="matrix(0.2 0 0 0.24 -49.42 -1.02)"  ><path style="stroke: none; stroke-width: 1; stroke-dasharray: none; stroke-linecap: butt; stroke-dashoffset: 0; stroke-linejoin: miter; stroke-miterlimit: 4; fill: rgb(255,255,255); fill-rule: nonzero; opacity: 1;"  transform=" translate(-252.41, -83.81)" d="M 253.73 51.1201 C 235.37 51.1201 223.5 63.9901 223.5 83.9101 C 223.5 103.83 235.08 116.51 253.73 116.51 C 269.34 116.51 278.62 108.55 281.32 92.8501 C 281.32 92.8301 281.23 92.7301 281.2 92.7301 L 271.43 92.7301 C 271.31 92.7301 271.16 92.8401 271.12 93.0401 C 269.61 103.16 263.49 108.52 253.45 108.52 C 241.11 108.52 234.03 99.5501 234.03 83.9001 C 234.03 68.2501 241.32 59.1001 253.54 59.1001 C 262.87 59.1001 269.02 64.0801 270.85 73.1201 C 270.89 73.3101 271.11 73.4301 271.25 73.4301 L 280.74 73.4301 C 280.74 73.4301 280.85 73.3401 280.85 73.2201 C 277.99 58.5801 268.86 51.1101 253.72 51.1101 L 253.73 51.1201 Z" stroke-linecap="round" /></g><g transform="matrix(0.2 0 0 0.24 -38.59 -1.02)"  ><path style="stroke: none; stroke-width: 1; stroke-dasharray: none; stroke-linecap: butt; stroke-dashoffset: 0; stroke-linejoin: miter; stroke-miterlimit: 4; fill: rgb(255,255,255); fill-rule: nonzero; opacity: 1;"  transform=" translate(-306.44, -83.82)" d="M 316.98 115.23 L 326.75 115.23 C 326.82 115.23 326.95 115.1 326.95 115.02 L 326.77 97.3201 L 326.77 87.5502 C 326.86 80.6202 325.28 75.4601 322.08 72.2201 C 319.44 69.5401 315.69 68.1801 310.96 68.1801 C 304.82 68.1801 299.86 70.6601 296.61 75.3501 L 295.64 76.7501 L 295.64 75.0501 L 295.84 52.6001 C 295.84 52.5301 295.71 52.4001 295.64 52.4001 L 286.15 52.4001 C 286.08 52.4001 285.94 52.5301 285.94 52.6001 L 286.31 83.5301 L 285.94 115.03 C 285.94 115.1 286.07 115.23 286.15 115.23 L 295.64 115.23 C 295.71 115.23 295.84 115.1 295.84 115.02 L 295.57 88.4701 L 295.57 88.4202 L 295.57 88.3701 C 297.07 80.6301 302 75.6201 308.13 75.6201 C 313.66 75.6201 316.96 79.6401 316.96 86.3701 L 317.05 97.5001 L 316.78 115.03 C 316.78 115.1 316.91 115.23 316.99 115.23 L 316.98 115.23 Z" stroke-linecap="round" /></g><g transform="matrix(0.2 0 0 0.24 -32.26 1.04)"  ><path style="stroke: none; stroke-width: 1; stroke-dasharray: none; stroke-linecap: butt; stroke-dashoffset: 0; stroke-linejoin: miter; stroke-miterlimit: 4; fill: rgb(255,255,255); fill-rule: nonzero; opacity: 1;"  transform=" translate(-338.01, -92.25)" d="M 333.13 115.23 L 342.9 115.23 C 342.97 115.23 343.1 115.1 343.1 115.02 L 342.83 91.94 L 343.1 69.48 C 343.1 69.41 342.97 69.28 342.9 69.28 L 333.13 69.28 C 333.06 69.28 332.92 69.41 332.92 69.48 L 333.1 91.93 L 332.92 115.03 C 332.92 115.1 333.05 115.23 333.13 115.23 Z" stroke-linecap="round" /></g><g transform="matrix(0.2 0 0 0.24 -32.27 -7.21)"  ><path style="stroke: none; stroke-width: 1; stroke-dasharray: none; stroke-linecap: butt; stroke-dashoffset: 0; stroke-linejoin: miter; stroke-miterlimit: 4; fill: rgb(255,255,255); fill-rule: nonzero; opacity: 1;"  transform=" translate(-337.96, -58.49)" d="M 342.79 53.5801 L 333.13 53.5801 C 333.014 53.5801 332.92 53.6741 332.92 53.7901 L 332.92 63.1801 C 332.92 63.2961 333.014 63.3901 333.13 63.3901 L 342.79 63.3901 C 342.906 63.3901 343 63.2961 343 63.1801 L 343 53.7901 C 343 53.6741 342.906 53.5801 342.79 53.5801 Z" stroke-linecap="round" /></g><g transform="matrix(0.2 0 0 0.24 -25.89 1.04)"  ><path style="stroke: none; stroke-width: 1; stroke-dasharray: none; stroke-linecap: butt; stroke-dashoffset: 0; stroke-linejoin: miter; stroke-miterlimit: 4; fill: rgb(255,255,255); fill-rule: nonzero; opacity: 1;"  transform=" translate(-369.81, -92.26)" d="M 370.91 68.1902 C 356.94 68.1902 348.25 77.4702 348.25 92.4002 C 348.25 107.33 356.65 116.33 370.72 116.33 C 382.33 116.33 390.44 109.35 391.37 98.5602 C 391.37 98.4602 391.3 98.4002 391.25 98.4002 L 382.31 98.4002 C 382.19 98.4002 382.04 98.5102 382 98.7102 C 381.46 105.42 377.28 109.63 371.1 109.63 L 370.89 109.63 C 362.5 109.53 358.42 103.87 358.42 92.3102 C 358.42 80.7502 362.62 74.9902 370.9 74.9902 C 376.63 74.9902 380.54 78.4402 381.64 84.4602 C 381.68 84.6502 381.82 84.7602 381.95 84.7602 L 390.62 84.7602 C 390.62 84.7602 390.74 84.7002 390.75 84.6602 C 389.73 74.4802 382.14 68.1902 370.91 68.1902 Z" stroke-linecap="round" /></g><g transform="matrix(0.2 0 0 0.24 -16.5 1.04)"  ><path style="stroke: none; stroke-width: 1; stroke-dasharray: none; stroke-linecap: butt; stroke-dashoffset: 0; stroke-linejoin: miter; stroke-miterlimit: 4; fill: rgb(255,255,255); fill-rule: nonzero; opacity: 1;"  transform=" translate(-416.68, -92.25)" d="M 428.75 115.04 C 428.75 115.1 428.88 115.23 428.96 115.23 L 438.54 115.23 C 438.61 115.23 438.74 115.1 438.74 115.02 L 438.47 92.1201 L 438.74 69.4701 C 438.74 69.4001 438.61 69.2701 438.54 69.2701 L 428.87 69.2701 C 428.8 69.2701 428.66 69.4001 428.66 69.4701 L 428.93 74.7401 L 429.02 76.5701 L 427.97 75.0701 C 424.85 70.6201 420.21 68.3601 414.16 68.3601 C 402.65 68.3601 394.61 78.2401 394.61 92.3901 C 394.61 106.54 402.21 116.14 413.98 116.14 C 419.91 116.14 424.75 113.66 427.97 108.98 L 428.98 107.5 L 428.92 109.29 L 428.74 115.04 L 428.75 115.04 Z M 416.91 109.43 C 409.04 109.43 404.7 103.12 404.7 91.6601 C 404.7 80.9601 409.07 75.0701 417 75.0701 L 417.18 75.0701 C 424.91 75.1701 429.29 81.5501 429.2 92.5701 C 429.11 103.44 424.74 109.43 416.9 109.43 L 416.91 109.43 Z" stroke-linecap="round" /></g><g transform="matrix(0.2 0 0 0.24 -6.7 3.16)"  ><path style="stroke: none; stroke-width: 1; stroke-dasharray: none; stroke-linecap: butt; stroke-dashoffset: 0; stroke-linejoin: miter; stroke-miterlimit: 4; fill: rgb(255,255,255); fill-rule: nonzero; opacity: 1;"  transform=" translate(-465.56, -100.94)" d="M 465.28 133.31 L 465.91 133.31 C 473.16 133.31 478.71 131.41 482.41 127.68 C 485.75 124.31 487.43 119.59 487.39 113.66 L 487.3 90.5701 L 487.57 69.4801 C 487.57 69.4101 487.44 69.28 487.37 69.28 L 477.79 69.28 C 477.72 69.28 477.58 69.4101 477.58 69.4801 L 477.76 74.7601 L 477.82 76.5101 L 476.81 75.08 C 473.74 70.75 469.16 68.55 463.18 68.55 C 451.61 68.55 443.54 78.2 443.54 92.03 C 443.54 105.86 451.24 114.96 463.64 114.96 C 469.43 114.96 474.14 112.48 477.26 107.8 L 478.22 106.36 L 478.22 113.48 C 478.22 122 473.95 126.69 466.2 126.69 C 459.64 126.69 455.66 123.93 455 118.93 C 454.97 118.76 454.82 118.66 454.7 118.66 L 445.3 118.66 C 445.23 118.66 445.09 118.79 445.09 118.87 C 445.82 128.04 453.18 133.32 465.29 133.32 L 465.28 133.31 Z M 466 108.44 L 465.82 108.44 C 457.95 108.44 453.61 102.45 453.61 91.5801 C 453.61 80.7101 458 75.1701 465.65 75.1701 L 466.01 75.1701 C 473.85 75.2701 478.12 81.39 478.02 92.4 C 477.9 105.65 471.42 108.43 466 108.43 L 466 108.44 Z" stroke-linecap="round" /></g><g transform="matrix(0.2 0 0 0.24 3.21 1.04)"  ><path style="stroke: none; stroke-width: 1; stroke-dasharray: none; stroke-linecap: butt; stroke-dashoffset: 0; stroke-linejoin: miter; stroke-miterlimit: 4; fill: rgb(255,255,255); fill-rule: nonzero; opacity: 1;"  transform=" translate(-515.01, -92.26)" d="M 515.11 68.1902 C 500.87 68.1902 492.36 77.2402 492.36 92.4002 C 492.36 107.56 500.86 116.33 515.11 116.33 C 529.36 116.33 537.67 107.28 537.67 92.1202 C 537.67 76.9602 529.23 68.1902 515.11 68.1902 Z M 515.11 109.62 C 506.77 109.62 502.54 103.85 502.54 92.4802 C 502.54 81.1102 506.74 74.9802 515.01 74.8902 C 523.24 74.8902 527.41 80.7802 527.41 92.3902 C 527.41 104 523.39 109.62 515.11 109.62 Z" stroke-linecap="round" /></g><g transform="matrix(0.2 0 0 0.24 13.38 -1.02)"  ><path style="stroke: none; stroke-width: 1; stroke-dasharray: none; stroke-linecap: butt; stroke-dashoffset: 0; stroke-linejoin: miter; stroke-miterlimit: 4; fill: rgb(237,0,0); fill-rule: nonzero; opacity: 1;"  transform=" translate(-565.76, -83.82)" d="M 565.67 92.0502 C 580.24 92.0502 588.6 84.7201 588.6 71.9501 C 588.6 59.1801 580.46 52.4001 565.67 52.4001 L 543.13 52.4001 C 543.06 52.4001 542.93 52.5301 542.93 52.6001 L 543.2 83.4401 L 542.93 115.03 C 542.93 115.1 543.06 115.23 543.13 115.23 L 553.08 115.23 C 553.15 115.23 553.28 115.1 553.28 115.02 L 553.1 92.5701 L 553.1 92.0401 L 553.62 92.0401 L 565.67 92.0401 L 565.67 92.0502 Z M 553.01 84.5202 L 553.01 83.7201 L 553.19 60.4401 L 553.19 59.9202 L 566.04 59.9202 C 574.38 59.9202 578.79 64.1401 578.79 72.1301 C 578.79 80.1201 574.39 84.5202 566.4 84.5202 L 553.01 84.5202 Z" stroke-linecap="round" /></g><g transform="matrix(0.2 0 0 0.24 22.83 1.17)"  ><path style="stroke: none; stroke-width: 1; stroke-dasharray: none; stroke-linecap: butt; stroke-dashoffset: 0; stroke-linejoin: miter; stroke-miterlimit: 4; fill: rgb(237,0,0); fill-rule: nonzero; opacity: 1;"  transform=" translate(-612.93, -92.79)" d="M 623.98 115.23 L 633.2 115.23 C 633.27 115.23 633.4 115.1 633.4 115.02 L 633.31 90.84 L 633.49 69.48 C 633.49 69.41 633.36 69.28 633.29 69.28 L 623.53 69.28 C 623.46 69.28 623.32 69.41 623.32 69.48 L 623.41 88.73 L 623.41 93.84 C 622.56 102.94 617.81 108.78 611.29 108.78 C 605.73 108.78 602.28 104.7 602.28 98.13 L 602.28 88.73 L 602.46 69.47 C 602.46 69.4 602.33 69.27 602.25 69.27 L 592.58 69.27 C 592.51 69.27 592.37 69.4 592.37 69.47 L 592.55 88.72 L 592.55 98.4 C 592.55 109.78 598.21 116.31 608.09 116.31 C 614.14 116.31 619.61 113.5 623.09 108.59 L 624.12 107.13 L 624.04 108.91 L 623.77 115.02 C 623.77 115.07 623.9 115.2 623.98 115.2 L 623.98 115.23 Z" stroke-linecap="round" /></g><g transform="matrix(0.2 0 0 0.24 32.59 -0.91)"  ><path style="stroke: none; stroke-width: 1; stroke-dasharray: none; stroke-linecap: butt; stroke-dashoffset: 0; stroke-linejoin: miter; stroke-miterlimit: 4; fill: rgb(237,0,0); fill-rule: nonzero; opacity: 1;"  transform=" translate(-661.63, -84.27)" d="M 664.14 116.14 C 675.65 116.14 683.69 106.26 683.69 92.1201 C 683.69 77.9801 676.09 68.3701 664.32 68.3701 C 658.48 68.3701 653.83 70.6601 650.51 75.1801 L 649.56 76.4801 L 649.56 74.8701 L 649.66 52.6001 C 649.66 52.5301 649.53 52.4001 649.45 52.4001 L 639.78 52.4001 C 639.71 52.4001 639.58 52.5301 639.58 52.6001 L 639.85 82.4401 L 639.58 115.03 C 639.58 115.1 639.71 115.23 639.78 115.23 L 649.45 115.23 C 649.52 115.23 649.66 115.1 649.66 115.02 L 649.39 109.75 L 649.3 107.92 L 650.35 109.42 C 653.47 113.87 658.11 116.13 664.16 116.13 L 664.14 116.14 Z M 649.1 91.7501 C 649.19 81.1201 653.56 75.2601 661.4 75.2601 L 661.56 75.2601 C 669.27 75.2601 673.51 81.4402 673.51 92.6702 C 673.51 103.9 669.23 109.26 661.46 109.26 L 661.11 109.26 C 653.39 109.16 649.01 102.78 649.1 91.7501 Z" stroke-linecap="round" /></g><g transform="matrix(0.2 0 0 0.24 39.06 -1.02)"  ><path style="stroke: none; stroke-width: 1; stroke-dasharray: none; stroke-linecap: butt; stroke-dashoffset: 0; stroke-linejoin: miter; stroke-miterlimit: 4; fill: rgb(237,0,0); fill-rule: nonzero; opacity: 1;"  transform=" translate(-693.89, -83.81)" d="M 689.14 115.23 L 698.63 115.23 C 698.7 115.23 698.84 115.1 698.84 115.02 L 698.57 83.6301 L 698.84 52.5901 C 698.84 52.5201 698.71 52.3901 698.63 52.3901 L 689.14 52.3901 C 689.07 52.3901 688.94 52.5201 688.94 52.5901 L 689.31 83.6102 L 688.94 115.02 C 688.94 115.09 689.07 115.22 689.14 115.22 L 689.14 115.23 Z" stroke-linecap="round" /></g><g transform="matrix(0.2 0 0 0.24 42.42 -7.21)"  ><path style="stroke: none; stroke-width: 1; stroke-dasharray: none; stroke-linecap: butt; stroke-dashoffset: 0; stroke-linejoin: miter; stroke-miterlimit: 4; fill: rgb(237,0,0); fill-rule: nonzero; opacity: 1;"  transform=" translate(-710.68, -58.49)" d="M 705.84 53.5801 L 715.51 53.5801 C 715.62 53.5801 715.72 53.6701 715.72 53.7901 L 715.72 63.1901 C 715.72 63.3001 715.63 63.3901 715.52 63.3901 L 705.85 63.3901 C 705.74 63.3901 705.64 63.3001 705.64 63.1801 L 705.64 53.7801 C 705.64 53.6701 705.73 53.5801 705.84 53.5801 Z" stroke-linecap="round" /></g><g transform="matrix(0.2 0 0 0.24 42.43 1.04)"  ><path style="stroke: none; stroke-width: 1; stroke-dasharray: none; stroke-linecap: butt; stroke-dashoffset: 0; stroke-linejoin: miter; stroke-miterlimit: 4; fill: rgb(237,0,0); fill-rule: nonzero; opacity: 1;"  transform=" translate(-710.73, -92.25)" d="M 715.61 115.23 C 715.68 115.23 715.82 115.1 715.82 115.02 L 715.55 91.94 L 715.82 69.48 C 715.82 69.41 715.69 69.28 715.61 69.28 L 705.84 69.28 C 705.77 69.28 705.64 69.41 705.64 69.48 L 705.82 91.93 L 705.64 115.03 C 705.64 115.1 705.77 115.23 705.84 115.23 L 715.61 115.23 Z" stroke-linecap="round" /></g><g transform="matrix(0.2 0 0 0.24 48.8 1.04)"  ><path style="stroke: none; stroke-width: 1; stroke-dasharray: none; stroke-linecap: butt; stroke-dashoffset: 0; stroke-linejoin: miter; stroke-miterlimit: 4; fill: rgb(237,0,0); fill-rule: nonzero; opacity: 1;"  transform=" translate(-742.53, -92.26)" d="M 743.63 68.1902 C 729.65 68.1902 720.97 77.4702 720.97 92.4002 C 720.97 107.33 729.37 116.33 743.44 116.33 C 755.05 116.33 763.16 109.35 764.09 98.5602 C 764.09 98.4602 764.02 98.4002 763.97 98.4002 L 755.03 98.4002 C 754.91 98.4002 754.76 98.5102 754.72 98.7102 C 754.18 105.42 750 109.63 743.83 109.63 L 743.62 109.63 C 735.23 109.53 731.15 103.87 731.15 92.3102 C 731.15 80.7502 735.35 74.9902 743.63 74.9902 C 749.36 74.9902 753.27 78.4402 754.37 84.4602 C 754.41 84.6502 754.55 84.7602 754.68 84.7602 L 763.35 84.7602 C 763.35 84.7602 763.47 84.7002 763.48 84.6602 C 762.46 74.4802 754.87 68.1902 743.64 68.1902 L 743.63 68.1902 Z" stroke-linecap="round" /></g><g transform="matrix(0.2 0 0 0.24 60.65 -1.02)"  ><path style="stroke: none; stroke-width: 1; stroke-dasharray: none; stroke-linecap: butt; stroke-dashoffset: 0; stroke-linejoin: miter; stroke-miterlimit: 4; fill: rgb(255,255,255); fill-rule: nonzero; opacity: 1;"  transform=" translate(-801.63, -83.81)" d="M 834.07 115.23 C 834.14 115.23 834.28 115.1 834.28 115.02 L 833.91 84.0901 L 834.18 52.5901 C 834.18 52.5201 834.05 52.3901 833.98 52.3901 L 821.39 52.3901 C 821.1 52.3901 820.95 52.6101 820.87 52.7901 L 802.9 101.88 L 802.42 103.2 L 801.92 101.89 L 783.21 52.7001 C 783.21 52.7001 783.03 52.4001 782.7 52.4001 L 769.19 52.4001 C 769.12 52.4001 768.99 52.5301 768.99 52.6001 L 769.26 84.0802 L 768.99 115.03 C 768.99 115.1 769.12 115.23 769.19 115.23 L 777.95 115.23 C 778.02 115.23 778.16 115.1 778.16 115.02 L 778.07 88.0101 L 777.8 72.8701 L 777.62 66.0301 L 777.54 62.9701 L 778.64 65.8301 L 797.44 114.93 C 797.44 114.93 797.62 115.23 797.95 115.23 L 805.34 115.23 C 805.63 115.23 805.78 115.01 805.86 114.83 L 823.47 67.3001 L 824.54 64.4101 L 824.49 67.4901 L 824.4 72.6901 L 824.13 88.0202 L 824.04 115.03 C 824.04 115.1 824.17 115.23 824.25 115.23 L 834.11 115.23 L 834.07 115.23 Z" stroke-linecap="round" /></g><g transform="matrix(0.2 0 0 0.24 72.73 1.04)"  ><path style="stroke: none; stroke-width: 1; stroke-dasharray: none; stroke-linecap: butt; stroke-dashoffset: 0; stroke-linejoin: miter; stroke-miterlimit: 4; fill: rgb(255,255,255); fill-rule: nonzero; opacity: 1;"  transform=" translate(-861.9, -92.27)" d="M 884.17 93.7902 C 884.24 93.7902 884.37 93.6602 884.37 93.5902 C 884.1 77.4502 875.87 68.2002 861.81 68.2002 C 847.75 68.2002 839.43 77.4802 839.43 92.4102 C 839.43 107.34 848.15 116.34 862.18 116.34 C 873.63 116.34 881.92 110.07 883.29 100.36 C 883.29 100.29 883.22 100.23 883.17 100.23 L 874.04 100.23 C 873.9 100.23 873.68 100.35 873.64 100.54 C 872.34 106.49 868.44 109.63 862.36 109.63 C 854.06 109.63 849.8 104.63 849.33 94.3402 L 849.31 93.7902 L 884.17 93.7902 Z M 849.7 86.8402 C 850.93 78.9702 855.15 74.8102 861.9 74.8102 C 869.83 74.8102 873.12 81.0502 873.56 86.8902 L 873.6 87.4502 L 849.61 87.4502 L 849.7 86.8402 Z" stroke-linecap="round" /></g><g transform="matrix(0.2 0 0 0.24 82.35 -0.91)"  ><path style="stroke: none; stroke-width: 1; stroke-dasharray: none; stroke-linecap: butt; stroke-dashoffset: 0; stroke-linejoin: miter; stroke-miterlimit: 4; fill: rgb(255,255,255); fill-rule: nonzero; opacity: 1;"  transform=" translate(-909.95, -84.27)" d="M 931.81 52.4001 L 922.14 52.4001 C 922.07 52.4001 921.93 52.5301 921.93 52.6001 L 922.02 74.5901 L 922.02 76.2101 L 921.07 74.9001 C 917.91 70.5601 913.32 68.3601 907.44 68.3601 C 895.93 68.3601 887.89 78.2402 887.89 92.3902 C 887.89 106.54 895.49 116.14 907.26 116.14 C 913.19 116.14 918.03 113.66 921.25 108.98 L 922.29 107.46 L 922.2 109.3 L 921.93 115.05 C 921.93 115.1 922.06 115.23 922.14 115.23 L 931.81 115.23 C 931.88 115.23 932.01 115.1 932.01 115.02 L 931.83 82.2601 L 932.01 52.5901 C 932.01 52.5201 931.88 52.3901 931.81 52.3901 L 931.81 52.4001 Z M 910.18 109.53 C 902.31 109.53 897.97 103.22 897.97 91.7601 C 897.97 80.9401 902.28 74.9901 910.11 74.9901 L 910.46 74.9901 C 918.18 75.0901 922.56 81.5401 922.47 92.6801 C 922.38 103.55 918.01 109.54 910.17 109.54 L 910.18 109.53 Z" stroke-linecap="round" /></g><g transform="matrix(0.2 0 0 0.24 89.06 -7.21)"  ><path style="stroke: none; stroke-width: 1; stroke-dasharray: none; stroke-linecap: butt; stroke-dashoffset: 0; stroke-linejoin: miter; stroke-miterlimit: 4; fill: rgb(255,255,255); fill-rule: nonzero; opacity: 1;"  transform=" translate(-943.4, -58.49)" d="M 938.56 53.5801 L 948.23 53.5801 C 948.34 53.5801 948.44 53.6701 948.44 53.7901 L 948.44 63.1901 C 948.44 63.3001 948.35 63.3901 948.24 63.3901 L 938.57 63.3901 C 938.46 63.3901 938.36 63.3001 938.36 63.1801 L 938.36 53.7801 C 938.36 53.6701 938.45 53.5801 938.56 53.5801 Z" stroke-linecap="round" /></g><g transform="matrix(0.2 0 0 0.24 89.07 1.04)"  ><path style="stroke: none; stroke-width: 1; stroke-dasharray: none; stroke-linecap: butt; stroke-dashoffset: 0; stroke-linejoin: miter; stroke-miterlimit: 4; fill: rgb(255,255,255); fill-rule: nonzero; opacity: 1;"  transform=" translate(-943.45, -92.25)" d="M 948.33 115.23 C 948.4 115.23 948.54 115.1 948.54 115.02 L 948.27 91.94 L 948.54 69.48 C 948.54 69.41 948.41 69.28 948.33 69.28 L 938.56 69.28 C 938.49 69.28 938.36 69.41 938.36 69.48 L 938.54 91.93 L 938.36 115.03 C 938.36 115.1 938.49 115.23 938.56 115.23 L 948.33 115.23 Z" stroke-linecap="round" /></g><g transform="matrix(0.2 0 0 0.24 95.54 1.04)"  ><path style="stroke: none; stroke-width: 1; stroke-dasharray: none; stroke-linecap: butt; stroke-dashoffset: 0; stroke-linejoin: miter; stroke-miterlimit: 4; fill: rgb(255,255,255); fill-rule: nonzero; opacity: 1;"  transform=" translate(-975.76, -92.25)" d="M 987.82 115.04 C 987.82 115.1 987.95 115.23 988.03 115.23 L 997.61 115.23 C 997.68 115.23 997.82 115.1 997.82 115.02 L 997.55 92.1201 L 997.82 69.4701 C 997.82 69.4001 997.69 69.2701 997.61 69.2701 L 987.94 69.2701 C 987.87 69.2701 987.74 69.4001 987.74 69.4701 L 988.01 74.7401 L 988.1 76.5701 L 987.05 75.0701 C 983.93 70.6201 979.29 68.3601 973.24 68.3601 C 961.73 68.3601 953.69 78.2401 953.69 92.3901 C 953.69 106.54 961.29 116.14 973.06 116.14 C 978.99 116.14 983.83 113.66 987.05 108.98 L 988.06 107.5 L 988 109.29 L 987.82 115.04 Z M 975.98 109.43 C 968.11 109.43 963.77 103.12 963.77 91.6601 C 963.77 80.9601 968.14 75.0701 976.07 75.0701 L 976.25 75.0701 C 983.98 75.1701 988.36 81.5501 988.27 92.5701 C 988.18 103.44 983.81 109.43 975.97 109.43 L 975.98 109.43 Z" stroke-linecap="round" /></g><g transform="matrix(0.2 0 0 0.24 -82.52 -0.1)"  ><path style="stroke: none; stroke-width: 1; stroke-dasharray: none; stroke-linecap: butt; stroke-dashoffset: 0; stroke-linejoin: miter; stroke-miterlimit: 4; fill: rgb(255,255,255); fill-rule: nonzero; opacity: 1;"  transform=" translate(-87.23, -87.61)" d="M 162.33 76.16 L 174.47 76.16 C 171.98 56.92 163.4 39.49 149.56 25.66 C 133.01 9.11 111.01 0 87.61 0 C 64.21 0 42.21 9.11 25.66 25.66 C 9.11 42.21 0 64.21 0 87.61 C 0 111.01 9.11 133.01 25.66 149.56 C 42.21 166.11 64.21 175.22 87.61 175.22 C 111.01 175.22 133.01 166.11 149.56 149.56 C 163.39 135.73 171.98 118.29 174.47 99.05 L 162.33 99.05 C 157.67 110.69 146.31 118.43 133.71 118.43 C 116.71 118.43 102.88 104.6 102.88 87.6 C 102.88 70.6 116.71 56.77 133.71 56.77 C 146.3 56.77 157.66 64.51 162.33 76.15 L 162.33 76.16 Z M 103.17 162.97 C 98.09 164.01 92.86 164.53 87.62 164.53 C 67.07 164.53 47.75 156.53 33.22 142 C 18.69 127.47 10.69 108.15 10.69 87.61 C 10.69 67.07 18.69 47.74 33.22 33.21 C 47.75 18.68 67.07 10.68 87.62 10.68 C 92.86 10.68 98.09 11.21 103.16 12.24 L 118.27 15.33 L 102.85 15.36 C 63.09 15.43 30.74 47.84 30.74 87.61 C 30.74 127.38 63.09 159.79 102.86 159.85 L 118.3 159.88 L 103.17 162.97 Z M 116.96 147.57 C 112.41 148.63 107.7 149.17 102.99 149.17 C 69.05 149.17 41.43 121.56 41.43 87.61 C 41.43 53.66 69.04 26.05 102.99 26.05 C 107.71 26.05 112.41 26.59 116.96 27.65 L 128.76 30.4 L 116.65 30.76 C 101.84 31.2 87.97 37.31 77.6 47.98 C 67.2 58.67 61.48 72.74 61.48 87.62 C 61.48 102.5 67.21 116.57 77.6 127.25 C 87.98 137.92 101.84 144.03 116.65 144.47 L 128.75 144.83 L 116.96 147.58 L 116.96 147.57 Z M 130.52 46.22 C 109.04 47.87 92.21 66.05 92.21 87.62 C 92.21 109.19 109.04 127.37 130.53 129.01 L 139.42 129.69 L 130.84 132.1 C 126.79 133.24 122.59 133.81 118.36 133.81 C 92.89 133.81 72.17 113.09 72.17 87.62 C 72.17 62.15 92.89 41.43 118.36 41.43 C 122.59 41.43 126.79 42.01 130.84 43.14 L 139.41 45.55 L 130.53 46.23 L 130.52 46.22 Z" stroke-linecap="round" /></g></g></g></g></g></svg>