<svg xmlns="http://www.w3.org/2000/svg" viewBox="0 0 13 14"><g transform="matrix(1 0 0 1 0 0)"  ><g style=""   ><g transform="matrix(1 0 0 1 6.5 7)"  ><g style=""   ><g transform="matrix(0.93 0 0 0.93 0 0)"  ><path style="stroke: none; stroke-width: 1; stroke-dasharray: none; stroke-linecap: butt; stroke-dashoffset: 0; stroke-linejoin: miter; stroke-miterlimit: 4; fill: rgb(100,98,98); fill-rule: nonzero; opacity: 1;"  transform=" translate(-7, -7.5)" d="M 7 14.5 C 5.61553 14.5 4.26215 14.0895 3.11101 13.3203 C 1.95987 12.5511 1.06266 11.4579 0.532846 10.1788 C 0.00303298 8.8997 -0.13559 7.49224 0.134506 6.13437 C 0.404603 4.7765 1.07129 3.52922 2.05026 2.55026 C 3.02922 1.57129 4.2765 0.904603 5.63437 0.634506 C 6.99224 0.36441 8.3997 0.503033 9.67879 1.03285 C 10.9579 1.56266 12.0511 2.45987 12.8203 3.61101 C 13.5895 4.76215 14 6.11553 14 7.5 C 14 9.35652 13.2625 11.137 11.9497 12.4497 C 10.637 13.7625 8.85652 14.5 7 14.5 Z M 7 1.5 C 5.81331 1.5 4.65328 1.8519 3.66658 2.51119 C 2.67989 3.17047 1.91085 4.10755 1.45673 5.2039 C 1.0026 6.30026 0.88378 7.50666 1.11529 8.67054 C 1.3468 9.83443 1.91825 10.9035 2.75736 11.7426 C 3.59648 12.5818 4.66557 13.1532 5.82946 13.3847 C 6.99335 13.6162 8.19975 13.4974 9.2961 13.0433 C 10.3925 12.5892 11.3295 11.8201 11.9888 10.8334 C 12.6481 9.84673 13 8.68669 13 7.5 C 13 5.9087 12.3679 4.38258 11.2426 3.25736 C 10.1174 2.13214 8.5913 1.5 7 1.5 Z" stroke-linecap="round" /></g><g transform="matrix(0.93 0 0 0.93 1.16 -0.7)"  ><path style="stroke: none; stroke-width: 1; stroke-dasharray: none; stroke-linecap: butt; stroke-dashoffset: 0; stroke-linejoin: miter; stroke-miterlimit: 4; fill: rgb(100,98,98); fill-rule: nonzero; opacity: 1;"  transform=" translate(-8.25, -6.75)" d="M 9.295 10.5 L 6.5 7.705 L 6.5 3 L 7.5 3 L 7.5 7.29 L 10 9.795 L 9.295 10.5 Z" stroke-linecap="round" /></g></g></g></g></g></svg>