<svg xmlns="http://www.w3.org/2000/svg" viewBox="0 0 177 23"><g transform="matrix(1.53 0 0 1 -47 0)"  ><g style=""   ><g transform="matrix(1 0 0 1 88.5 11.5)"  ><g style=""   ><g transform="matrix(1 0 0 1.53 62.06 0.16)"  ><path style="stroke: none; stroke-width: 1; stroke-dasharray: none; stroke-linecap: butt; stroke-dashoffset: 0; stroke-linejoin: miter; stroke-miterlimit: 4; fill: rgb(255,255,255); fill-rule: nonzero; opacity: 1;"  transform=" translate(-150.56, -7.61)" d="M 171.83 14.9355 C 175.143 14.9355 176.786 12.9212 176.786 10.7478 C 176.786 7.75276 174.215 6.8516 172.28 6.05646 C 171.114 5.55287 170.186 5.10229 170.186 4.25414 C 170.186 3.64454 170.61 3.19396 171.458 3.19396 C 172.466 3.19396 173.208 3.85657 173.817 5.04928 L 176.547 3.53852 C 175.62 1.65669 174.056 0.278442 171.511 0.278442 C 168.728 0.278442 166.688 1.92173 166.688 4.41317 C 166.688 7.3817 169.073 8.28286 170.981 9.05149 C 172.254 9.55508 173.287 9.97916 173.287 10.9333 C 173.287 11.6755 172.784 12.1525 171.803 12.1525 C 170.557 12.1525 169.63 11.1454 169.02 10.1117 L 166.184 11.5694 C 167.218 13.5043 168.861 14.9355 171.83 14.9355 Z M 156.616 14.6705 L 165.389 14.6705 L 165.389 11.7815 L 160.194 11.7815 L 160.194 8.78644 L 163.746 8.78644 L 163.746 5.97695 L 160.194 5.97695 L 160.194 3.51201 L 165.177 3.51201 L 165.177 0.543489 L 156.642 0.543489 L 156.616 14.6705 Z M 141.561 14.6705 L 144.636 14.6705 L 144.636 5.47336 L 144.662 5.47336 C 144.799 6.65897 145.002 7.83589 145.272 8.99848 L 146.544 14.6705 L 149.142 14.6705 L 150.44 8.97198 C 150.599 8.28286 150.997 6.53355 151.023 5.55287 L 151.076 5.55287 L 151.076 14.6705 L 154.442 14.6705 L 154.442 0.543489 L 149.831 0.543489 L 148.081 9.76712 L 148.055 9.76712 L 146.12 0.543489 L 141.561 0.543489 L 141.561 14.6705 Z M 135.757 14.6705 L 139.308 14.6705 L 139.308 0.543489 L 135.757 0.543489 L 135.757 14.6705 Z M 127.54 14.6705 L 131.092 14.6705 L 131.092 3.51201 L 134.325 3.51201 L 134.325 0.543489 L 124.333 0.543489 L 124.333 3.51201 L 127.567 3.51201 L 127.54 14.6705 Z" stroke-linecap="round" /></g><g transform="matrix(1 0 0 1.53 -29.7 0.14)"  ><path style="stroke: none; stroke-width: 1; stroke-dasharray: none; stroke-linecap: butt; stroke-dashoffset: 0; stroke-linejoin: miter; stroke-miterlimit: 4; fill: rgb(255,255,255); fill-rule: nonzero; opacity: 1;"  transform=" translate(-58.8, -7.59)" d="M 107.026 14.67 L 110.233 14.67 L 110.233 7.11612 L 110.259 7.11612 C 110.522 7.73487 110.823 8.33679 111.161 8.91843 L 114.315 14.67 L 117.601 14.67 L 117.601 0.542955 L 114.394 0.542955 L 114.394 8.12329 L 114.368 8.12329 C 114.037 7.30994 113.665 6.51379 113.255 5.73787 L 110.604 0.542955 L 107.052 0.542955 L 107.052 14.67 L 107.026 14.67 Z M 100.055 14.9085 C 103.633 14.9085 105.091 13.1062 105.091 9.66057 L 105.091 0.542955 L 101.698 0.542955 L 101.698 9.52804 C 101.698 11.2774 101.248 11.94 100.108 11.94 C 98.9685 11.94 98.4914 11.2774 98.4914 9.50154 L 98.4914 0.542955 L 94.9398 0.542955 L 94.9398 9.68707 C 94.9398 13.0797 96.4771 14.9085 100.055 14.9085 Z M 88.6582 14.935 C 91.9713 14.935 93.641 12.9206 93.641 10.7473 C 93.641 7.75223 91.0701 6.85107 89.1352 6.05593 C 87.969 5.55234 87.0414 5.10176 87.0414 4.25361 C 87.0414 3.644 87.4655 3.19342 88.3136 3.19342 C 89.3208 3.19342 90.0629 3.85604 90.6725 5.04875 L 93.376 3.53798 C 92.4483 1.65615 90.8846 0.304413 88.3401 0.304413 C 85.5571 0.304413 83.5163 1.9477 83.5163 4.43914 C 83.5163 7.40767 85.9017 8.30883 87.7835 9.07746 C 89.0557 9.58105 90.0894 10.0051 90.0894 10.9593 C 90.0894 11.7014 89.5858 12.1785 88.6052 12.1785 C 87.3594 12.1785 86.4318 11.1713 85.8222 10.1377 L 83.0392 11.5424 C 84.0463 13.5037 85.6896 14.935 88.6582 14.935 Z M 71.5361 12.0195 C 69.9989 12.0195 69.2567 10.4292 69.2567 7.5932 C 69.2567 4.7572 69.9989 3.27294 71.5361 3.27294 C 73.0734 3.27294 73.8155 4.7572 73.8155 7.5932 C 73.8155 10.4292 73.0734 12.0195 71.5361 12.0195 Z M 71.5361 14.935 C 74.6372 14.935 77.3937 12.8146 77.3937 7.5932 C 77.3937 2.37178 74.6372 0.251404 71.5361 0.251404 C 68.4351 0.251404 65.6786 2.37178 65.6786 7.5932 C 65.6786 12.8146 68.4086 14.935 71.5361 14.935 Z M 58.4428 14.882 C 60.1656 14.882 61.2788 13.7688 61.5704 12.8941 L 61.5969 12.8941 L 61.5969 14.67 L 64.1678 14.67 L 64.1678 7.46068 L 59.238 7.46068 L 59.238 10.0846 L 60.9608 10.0846 C 60.6957 11.3834 60.0066 12.0195 58.9994 12.0195 C 57.7537 12.0195 56.773 11.2243 56.773 7.51369 C 56.773 3.80303 57.8597 3.27294 58.8139 3.27294 C 59.7681 3.27294 60.3247 3.85604 60.6957 5.97641 L 63.9293 5.3138 C 63.3197 1.60314 61.7294 0.251404 58.9464 0.251404 C 55.2093 0.251404 53.2214 2.87537 53.2214 7.54019 C 53.1684 12.1255 54.9972 14.882 58.4428 14.882 Z M 48.318 9.55455 L 46.0386 9.55455 L 46.3037 8.49436 C 46.658 7.30893 46.95 6.10573 47.1783 4.88972 L 47.2048 4.88972 C 47.4169 6.18845 47.7084 7.11612 48.053 8.49436 L 48.318 9.55455 Z M 45.3495 12.2845 L 48.9807 12.2845 L 49.5638 14.67 L 53.1419 14.67 L 49.0072 0.489946 L 45.5616 0.489946 L 41.4268 14.67 L 44.7399 14.67 L 45.3495 12.2845 Z M 36.0994 14.935 C 39.545 14.935 40.8702 12.6291 41.3738 9.74008 L 38.0342 9.20999 C 37.7162 11.2774 37.2656 12.0195 36.1259 12.0195 C 34.6681 12.0195 34.032 10.5087 34.032 7.5932 C 34.032 4.67769 34.6151 3.27294 36.0729 3.27294 C 37.1861 3.27294 37.6101 4.09458 37.8752 5.92341 L 41.2148 5.3403 C 40.8437 2.21275 39.492 0.277909 36.1789 0.277909 C 32.8658 0.277909 30.4539 2.39828 30.4539 7.61971 C 30.4539 12.8411 32.7863 14.935 36.0994 14.935 Z M 25.206 14.67 L 28.7576 14.67 L 28.7576 0.542955 L 25.206 0.542955 L 25.206 14.67 Z M 12.3777 14.67 L 15.9293 14.67 L 15.9293 8.78591 L 19.4014 8.78591 L 19.4014 14.67 L 22.9531 14.67 L 22.9531 0.542955 L 19.4014 0.542955 L 19.4014 5.8704 L 15.9293 5.8704 L 15.9293 0.542955 L 12.3777 0.542955 L 12.3777 14.67 Z M 5.61899 14.935 C 9.0646 14.935 10.3898 12.6291 10.8934 9.74008 L 7.55383 9.20999 C 7.23578 11.2774 6.7852 12.0195 5.6455 12.0195 C 4.18774 12.0195 3.55163 10.5087 3.55163 7.5932 C 3.55163 4.67769 4.16124 3.27294 5.61899 3.27294 C 6.73219 3.27294 7.15626 4.09458 7.42131 5.92341 L 10.7609 5.3403 C 10.3898 2.21275 9.0381 0.277909 5.72501 0.277909 C 2.41193 0.277909 0 2.39828 0 7.61971 C 0 12.8411 2.30591 14.935 5.61899 14.935 Z" stroke-linecap="round" /></g><g transform="matrix(1 0 0 1.53 34.04 1.67)"  ><path style="stroke: none; stroke-width: 1; stroke-dasharray: none; stroke-linecap: butt; stroke-dashoffset: 0; stroke-linejoin: miter; stroke-miterlimit: 4; fill: rgb(255,255,255); fill-rule: nonzero; opacity: 1;"  transform=" translate(-122.54, -8.59)" d="M 121.869 7.40803 L 122.558 5.18164 L 123.22 7.40803 L 125.5 6.87794 L 123.91 8.57424 L 125.5 10.297 L 123.22 9.76695 L 122.558 11.9933 L 121.869 9.76695 L 119.589 10.297 L 121.18 8.57424 L 119.589 6.87794 L 121.869 7.40803 Z" stroke-linecap="round" /></g></g></g></g></g></svg>