<svg xmlns="http://www.w3.org/2000/svg" viewBox="0 0 8 17"><g transform="matrix(1 0 0 0.94 0 0)"  ><g style=""   ><g transform="matrix(0.37 0 0 0.39 4 8.49)"  ><path style="stroke: none; stroke-width: 1; stroke-dasharray: none; stroke-linecap: butt; stroke-dashoffset: 0; stroke-linejoin: miter; stroke-miterlimit: 4; fill: rgb(255,255,255); fill-rule: nonzero; opacity: 1;"  transform=" translate(-10.63, -21.88)" d="M 5.43 43.754 L 5.43 23.223999999999997 L 0 23.223999999999997 L 0 15.83 L 5.43 15.83 L 5.43 9.518 C 5.43 4.558 8.635 0 16.024 0 C 19.014000000000003 0 21.228 0.286 21.228 0.286 L 21.053 7.188999999999999 C 21.053 7.188999999999999 18.796 7.158999999999999 16.333000000000002 7.158999999999999 C 13.670000000000002 7.158999999999999 13.243000000000002 8.389 13.243000000000002 10.418999999999999 L 13.243000000000002 15.818999999999999 L 21.265 15.818999999999999 L 20.915 23.209 L 13.242999999999999 23.209 L 13.242999999999999 43.739000000000004 L 5.43 43.739000000000004 z" stroke-linecap="round" /></g></g></g></svg>