<svg xmlns="http://www.w3.org/2000/svg" viewBox="0 0 288 45"><g transform="matrix(1 0 0 1 0 0)"  ><g style=""   ><g transform="matrix(1 0 0 1 144 22.5)"  ><g style=""   ><g transform="matrix(0.4 0 0 0.39 92.42 0.14)" id="Layer_1"  ><path style="stroke: none; stroke-width: 1; stroke-dasharray: none; stroke-linecap: butt; stroke-dashoffset: 0; stroke-linejoin: miter; stroke-miterlimit: 4; fill: rgb(255,255,255); fill-rule: nonzero; opacity: 1;"  transform=" translate(-594.75, -57.35)" d="M 675 85 C 687.5 85 693.7 77.4 693.7 69.2 C 693.7 57.900000000000006 684 54.5 676.7 51.5 C 672.3000000000001 49.6 668.8000000000001 47.9 668.8000000000001 44.7 C 668.8000000000001 42.400000000000006 670.4000000000001 40.7 673.6 40.7 C 677.4 40.7 680.2 43.2 682.5 47.7 L 692.8 42 C 689.3 34.9 683.4 29.7 673.8 29.7 C 663.3 29.7 655.5999999999999 35.9 655.5999999999999 45.3 C 655.5999999999999 56.5 664.5999999999999 59.9 671.8 62.8 C 676.5999999999999 64.7 680.5 66.3 680.5 69.89999999999999 C 680.5 72.69999999999999 678.6 74.49999999999999 674.9 74.49999999999999 C 670.1999999999999 74.49999999999999 666.6999999999999 70.69999999999999 664.4 66.79999999999998 L 653.6999999999999 72.29999999999998 C 657.6 79.6 663.8 85 675 85 M 617.6 84 L 650.7 84 L 650.7 73.1 L 631.1 73.1 L 631.1 61.8 L 644.5 61.8 L 644.5 51.2 L 631.1 51.2 L 631.1 41.900000000000006 L 649.9 41.900000000000006 L 649.9 30.7 L 617.6999999999999 30.7 L 617.6 84 z M 560.8 84 L 572.4 84 L 572.4 49.3 L 572.5 49.3 C 573 53.8 573.8 58.199999999999996 574.8 62.599999999999994 L 579.5999999999999 84 L 589.3999999999999 84 L 594.2999999999998 62.5 C 594.8999999999999 59.9 596.3999999999999 53.3 596.4999999999999 49.6 L 596.6999999999999 49.6 L 596.6999999999999 84 L 609.4 84 L 609.4 30.7 L 592 30.7 L 585.4 65.5 L 585.3 65.5 L 578 30.7 L 560.8 30.7 L 560.8 84 z M 538.9 84 L 552.3 84 L 552.3 30.7 L 538.9 30.7 L 538.9 84 z M 507.9 84 L 521.3 84 L 521.3 41.9 L 533.5 41.9 L 533.5 30.7 L 495.8 30.7 L 495.8 41.9 L 508 41.9 L 507.9 84 z" stroke-linecap="round" /></g><g transform="matrix(0.4 0 0 0.39 -45.2 0.12)" id="Layer_1"  ><path style="stroke: none; stroke-width: 1; stroke-dasharray: none; stroke-linecap: butt; stroke-dashoffset: 0; stroke-linejoin: miter; stroke-miterlimit: 4; fill: rgb(255,255,255); fill-rule: nonzero; opacity: 1;"  transform=" translate(-248.55, -57.3)" d="M 430.5 84 L 442.6 84 L 442.6 55.5 L 442.70000000000005 55.5 C 443.70000000000005 57.8 444.80000000000007 60.1 446.1 62.3 L 458 84 L 470.4 84 L 470.4 30.7 L 458.29999999999995 30.7 L 458.29999999999995 59.3 L 458.19999999999993 59.3 C 456.3999999999999 55.099999999999994 455.69999999999993 53.5 453.99999999999994 50.3 L 443.99999999999994 30.699999999999996 L 430.59999999999997 30.699999999999996 L 430.5 84 L 430.5 84 z M 404.2 84.9 C 417.7 84.9 423.2 78.10000000000001 423.2 65.10000000000001 L 423.2 30.7 L 410.4 30.7 L 410.4 64.6 C 410.4 71.19999999999999 408.7 73.69999999999999 404.4 73.69999999999999 C 400.09999999999997 73.69999999999999 398.29999999999995 71.19999999999999 398.29999999999995 64.49999999999999 L 398.29999999999995 30.7 L 384.9 30.7 L 384.9 65.2 C 384.9 78 390.7 84.9 404.2 84.9 M 361.2 85 C 373.7 85 380 77.4 380 69.2 C 380 57.900000000000006 370.3 54.5 363 51.5 C 358.6 49.6 355.1 47.9 355.1 44.7 C 355.1 42.400000000000006 356.70000000000005 40.7 359.90000000000003 40.7 C 363.70000000000005 40.7 366.50000000000006 43.2 368.8 47.7 L 379 42 C 375.5 34.9 369.6 29.8 360 29.8 C 349.5 29.8 341.8 36 341.8 45.4 C 341.8 56.599999999999994 350.8 60 357.90000000000003 62.9 C 362.70000000000005 64.8 366.6 66.4 366.6 70 C 366.6 72.8 364.70000000000005 74.6 361 74.6 C 356.3 74.6 352.8 70.8 350.5 66.89999999999999 L 340 72.2 C 343.8 79.6 350 85 361.2 85 M 296.6 74 C 290.8 74 288 68 288 57.3 C 288 46.599999999999994 290.8 41 296.6 41 C 302.40000000000003 41 305.20000000000005 46.6 305.20000000000005 57.3 C 305.20000000000005 68 302.4 74 296.6 74 M 296.6 85 C 308.3 85 318.70000000000005 77 318.70000000000005 57.3 C 318.70000000000005 37.599999999999994 308.30000000000007 29.599999999999998 296.6 29.599999999999998 C 284.9 29.599999999999998 274.5 37.599999999999994 274.5 57.3 C 274.5 77 284.8 85 296.6 85 M 247.2 84.8 C 253.7 84.8 257.9 80.6 259 77.3 L 259.1 77.3 L 259.1 84 L 268.8 84 L 268.8 56.8 L 250.20000000000002 56.8 L 250.20000000000002 66.7 L 256.70000000000005 66.7 C 255.70000000000005 71.60000000000001 253.10000000000005 74 249.30000000000004 74 C 244.60000000000005 74 240.90000000000003 71 240.90000000000003 57 C 240.90000000000003 43 245.00000000000003 41 248.60000000000002 41 C 252.20000000000002 41 254.3 43.2 255.70000000000002 51.2 L 267.90000000000003 48.7 C 265.6 34.7 259.6 29.6 249.10000000000002 29.6 C 235.00000000000003 29.6 227.50000000000003 39.5 227.50000000000003 57.1 C 227.3 74.4 234.2 84.8 247.2 84.8 M 209 64.7 L 200.4 64.7 L 201.4 60.7 C 202.8 55.400000000000006 203.9 52 204.70000000000002 47.1 L 204.8 47.1 C 205.60000000000002 52 206.70000000000002 55.5 208 60.7 L 209 64.7 z M 197.8 75 L 211.5 75 L 213.7 84 L 227.2 84 L 211.6 30.5 L 198.6 30.5 L 183 84 L 195.5 84 L 197.8 75 z M 162.9 85 C 175.9 85 180.9 76.3 182.8 65.4 L 170.20000000000002 63.400000000000006 C 169 71.2 167.3 74 163 74 C 157.5 74 155.1 68.3 155.1 57.3 C 155.1 46.3 157.29999999999998 41 162.79999999999998 41 C 166.99999999999997 41 168.6 44.1 169.6 51 L 182.2 48.8 C 180.79999999999998 37 175.7 29.699999999999996 163.2 29.699999999999996 C 150.7 29.699999999999996 141.6 37.699999999999996 141.6 57.39999999999999 C 141.6 77.1 150.4 85 162.9 85 M 121.8 84 L 135.2 84 L 135.2 30.7 L 121.79999999999998 30.7 C 121.8 30.7 121.8 84 121.8 84 z M 73.4 84 L 86.80000000000001 84 L 86.80000000000001 61.8 L 99.9 61.8 L 99.9 84 L 113.30000000000001 84 L 113.30000000000001 30.7 L 99.9 30.7 L 99.9 50.8 L 86.8 50.8 L 86.8 30.7 L 73.4 30.7 L 73.4 84 z M 47.9 85 C 60.9 85 65.9 76.3 67.8 65.4 L 55.199999999999996 63.400000000000006 C 54 71.2 52.3 74 48 74 C 42.5 74 40.1 68.3 40.1 57.3 C 40.1 46.3 42.4 41 47.9 41 C 52.1 41 53.699999999999996 44.1 54.699999999999996 51 L 67.3 48.8 C 65.89999999999999 37 60.8 29.699999999999996 48.3 29.699999999999996 C 35.8 29.699999999999996 26.699999999999996 37.699999999999996 26.699999999999996 57.39999999999999 C 26.699999999999996 77.1 35.4 85 47.9 85" stroke-linecap="round" /></g><g transform="matrix(0.4 0 0 0.39 50.4 1.6)" id="Layer_1"  ><polygon style="stroke: none; stroke-width: 1; stroke-dasharray: none; stroke-linecap: butt; stroke-dashoffset: 0; stroke-linejoin: miter; stroke-miterlimit: 4; fill: rgb(208,35,42); fill-rule: nonzero; opacity: 1;"  points="-2.55,-4.45 0.05,-12.85 2.55,-4.45 11.15,-6.45 5.15,-0.05 11.15,6.45 2.55,4.45 0.05,12.85 -2.55,4.45 -11.15,6.45 -5.15,-0.05 -11.15,-6.45 " /></g></g></g></g></g></svg>