<svg xmlns="http://www.w3.org/2000/svg" viewBox="0 0 15 15"><g transform="matrix(1 0 0 1 0 0)"  ><g style=""   ><g transform="matrix(1 0 0 1 7.5 7.5)"  ><g style=""   ><g transform="matrix(1 0 0 1 0 0)" clip-path="url(#CLIPPATH_433)"  ><clipPath id="CLIPPATH_433" ><path transform="matrix(0 1 -1 0 0 0) translate(-7.5, -7.5)" id="clip0_2157_481" d="M 0 0 L 15 0 L 15 15 L 0 15 z" stroke-linecap="round" /></clipPath><path style="stroke: none; stroke-width: 1; stroke-dasharray: none; stroke-linecap: butt; stroke-dashoffset: 0; stroke-linejoin: miter; stroke-miterlimit: 4; fill: rgb(255,255,255); fill-rule: nonzero; opacity: 1;"  transform=" translate(-7.5, -7.5)" d="M 15 0 L 15 15 L 0 15 L 0 0 z" stroke-linecap="round" /></g><g transform="matrix(1 0 0 1 0 0)" clip-path="url(#CLIPPATH_434)"  ><clipPath id="CLIPPATH_434" ><path transform="matrix(0 1 -1 0 0 0) translate(-7.5, -7.5)" id="clip0_2157_481" d="M 0 0 L 15 0 L 15 15 L 0 15 z" stroke-linecap="round" /></clipPath><path style="stroke: none; stroke-width: 1; stroke-dasharray: none; stroke-linecap: butt; stroke-dashoffset: 0; stroke-linejoin: miter; stroke-miterlimit: 4; fill: rgb(255,255,255); fill-rule: nonzero; opacity: 1;"  transform=" translate(-7.5, -7.5)" d="M 15 0 L 15 15 L 0 15 L 0 0 z" stroke-linecap="round" /></g><g transform="matrix(-1 0 0 -1 0 4)" clip-path="url(#CLIPPATH_435)"  ><clipPath id="CLIPPATH_435" ><path transform="matrix(0 -1 1 0 0 4) translate(-7.5, -7.5)" id="clip0_2157_481" d="M 0 0 L 15 0 L 15 15 L 0 15 z" stroke-linecap="round" /></clipPath><circle style="stroke: none; stroke-width: 1; stroke-dasharray: none; stroke-linecap: butt; stroke-dashoffset: 0; stroke-linejoin: miter; stroke-miterlimit: 4; fill: rgb(0,174,205); fill-rule: nonzero; opacity: 1;"  cx="0" cy="0" r="1.5" /></g><g transform="matrix(-1 0 0 -1 0 0)" clip-path="url(#CLIPPATH_436)"  ><clipPath id="CLIPPATH_436" ><path transform="matrix(0 -1 1 0 0 0) translate(-7.5, -7.5)" id="clip0_2157_481" d="M 0 0 L 15 0 L 15 15 L 0 15 z" stroke-linecap="round" /></clipPath><circle style="stroke: none; stroke-width: 1; stroke-dasharray: none; stroke-linecap: butt; stroke-dashoffset: 0; stroke-linejoin: miter; stroke-miterlimit: 4; fill: rgb(0,174,205); fill-rule: nonzero; opacity: 1;"  cx="0" cy="0" r="1.5" /></g><g transform="matrix(-1 0 0 -1 0 -4)" clip-path="url(#CLIPPATH_437)"  ><clipPath id="CLIPPATH_437" ><path transform="matrix(0 -1 1 0 0 -4) translate(-7.5, -7.5)" id="clip0_2157_481" d="M 0 0 L 15 0 L 15 15 L 0 15 z" stroke-linecap="round" /></clipPath><circle style="stroke: none; stroke-width: 1; stroke-dasharray: none; stroke-linecap: butt; stroke-dashoffset: 0; stroke-linejoin: miter; stroke-miterlimit: 4; fill: rgb(0,174,205); fill-rule: nonzero; opacity: 1;"  cx="0" cy="0" r="1.5" /></g></g></g></g></g></svg>