<svg xmlns="http://www.w3.org/2000/svg" viewBox="0 0 8 5"><g transform="matrix(1 0 0 1 0 0)"  ><g style=""   ><g transform="matrix(0.01 0 0 0.01 4 2.5)"  ><path style="stroke: none; stroke-width: 1; stroke-dasharray: none; stroke-linecap: butt; stroke-dashoffset: 0; stroke-linejoin: miter; stroke-miterlimit: 4; fill: rgb(42,42,42); fill-rule: nonzero; opacity: 1;"  transform=" translate(-416.16, -256.05)" d="M 15.244 98.497 L 379.433 495.43 C 399.682 517.67 432.57 517.66 452.806 495.409 C 453.316 494.801 453.51599999999996 493.93899999999996 454.056 493.332 L 817.152 98.259 C 837.385 76.035 837.375 39.933 817.124 17.718999999999994 C 816.922 17.618999999999993 816.5930000000001 17.516999999999992 816.389 17.314999999999994 C 807.065 6.732 793.993 -0.005 779.353 0 L 52.923 0.208 C 38.073 0.212 24.903 7.286 15.43 18.18 L 15.23 17.953 C -5.084 40.278 -5.073999999999998 76.283 15.253 98.49600000000001 L 15.245000000000001 98.49600000000001 z" stroke-linecap="round" /></g></g></g></svg>