<svg xmlns="http://www.w3.org/2000/svg" viewBox="0 0 180 20"><g transform="matrix(1 0 0 1 0 0)"  ><g style=""   ><g transform="matrix(1 0 0 1 90 10)"  ><g style=""   ><g transform="matrix(1 0 0 1 -79.28 0)"  ><path style="stroke: none; stroke-width: 1; stroke-dasharray: none; stroke-linecap: butt; stroke-dashoffset: 0; stroke-linejoin: miter; stroke-miterlimit: 4; fill: rgb(17,16,16); fill-rule: nonzero; opacity: 1;"  transform=" translate(-10.72, -10)" d="M 7.72729 13.2582 L 7.72729 6.74182 C 7.72743 6.66029 7.74949 6.5803 7.79117 6.51022 C 7.83285 6.44015 7.8926 6.38258 7.96418 6.34353 C 8.03576 6.30449 8.11651 6.28542 8.19799 6.28832 C 8.27947 6.29122 8.35867 6.31598 8.4273 6.36 L 13.4964 9.61728 C 13.5606 9.6584 13.6134 9.71501 13.65 9.78189 C 13.6865 9.84877 13.7057 9.92377 13.7057 10 C 13.7057 10.0762 13.6865 10.1512 13.65 10.2181 C 13.6134 10.285 13.5606 10.3416 13.4964 10.3827 L 8.4273 13.6409 C 8.35867 13.6849 8.27947 13.7097 8.19799 13.7126 C 8.11651 13.7155 8.03576 13.6964 7.96418 13.6574 C 7.8926 13.6183 7.83285 13.5608 7.79117 13.4907 C 7.74949 13.4206 7.72743 13.3406 7.72729 13.2591 L 7.72729 13.2582 Z" stroke-linecap="round" /></g><g transform="matrix(1 0 0 1 -80 0)"  ><path style="stroke: none; stroke-width: 1; stroke-dasharray: none; stroke-linecap: butt; stroke-dashoffset: 0; stroke-linejoin: miter; stroke-miterlimit: 4; fill: rgb(17,16,16); fill-rule: nonzero; opacity: 1;"  transform=" translate(-10, -10)" d="M 0 10 C 0 4.47727 4.47727 0 10 0 C 15.5227 0 20 4.47727 20 10 C 20 15.5227 15.5227 20 10 20 C 4.47727 20 0 15.5227 0 10 Z M 10 1.36364 C 7.70949 1.36364 5.5128 2.27354 3.89317 3.89317 C 2.27354 5.5128 1.36364 7.70949 1.36364 10 C 1.36364 12.2905 2.27354 14.4872 3.89317 16.1068 C 5.5128 17.7265 7.70949 18.6364 10 18.6364 C 12.2905 18.6364 14.4872 17.7265 16.1068 16.1068 C 17.7265 14.4872 18.6364 12.2905 18.6364 10 C 18.6364 7.70949 17.7265 5.5128 16.1068 3.89317 C 14.4872 2.27354 12.2905 1.36364 10 1.36364 Z" stroke-linecap="round" /></g><g transform="matrix(1 0 0 1 -28.52 -0.27)"  ><path style="stroke: none; stroke-width: 1; stroke-dasharray: none; stroke-linecap: butt; stroke-dashoffset: 0; stroke-linejoin: miter; stroke-miterlimit: 4; fill: rgb(17,16,16); fill-rule: nonzero; opacity: 1;"  transform=" translate(-61.48, -9.73)" d="M 34.748 14.5 L 28.994 14.5 L 28.994 5.162 L 30.632 5.162 L 30.632 13.058 L 34.748 13.058 L 34.748 14.5 Z M 36.9124 6.618 C 36.4224 6.618 36.0024 6.212 36.0024 5.708 C 36.0024 5.204 36.4224 4.798 36.9124 4.798 C 37.4164 4.798 37.8224 5.204 37.8224 5.708 C 37.8224 6.212 37.4164 6.618 36.9124 6.618 Z M 37.6544 14.5 L 36.1844 14.5 L 36.1844 7.738 L 37.6544 7.738 L 37.6544 14.5 Z M 38.9734 13.618 L 39.6454 12.554 C 40.1214 13.044 41.0594 13.506 41.9414 13.506 C 42.8234 13.506 43.2714 13.184 43.2714 12.68 C 43.2714 12.092 42.5574 11.882 41.7314 11.7 C 40.5694 11.448 39.1834 11.14 39.1834 9.628 C 39.1834 8.522 40.1354 7.57 41.8434 7.57 C 42.9914 7.57 43.8594 7.976 44.4754 8.522 L 43.8594 9.558 C 43.4534 9.096 42.6974 8.746 41.8574 8.746 C 41.0874 8.746 40.5974 9.026 40.5974 9.502 C 40.5974 10.02 41.2694 10.202 42.0674 10.384 C 43.2434 10.636 44.6854 10.972 44.6854 12.568 C 44.6854 13.758 43.6914 14.668 41.8714 14.668 C 40.7234 14.668 39.6734 14.304 38.9734 13.618 Z M 48.1949 14.668 C 47.0609 14.668 46.4589 14.052 46.4589 12.932 L 46.4589 9.026 L 45.3389 9.026 L 45.3389 7.738 L 46.4589 7.738 L 46.4589 5.89 L 47.9289 5.89 L 47.9289 7.738 L 49.3009 7.738 L 49.3009 9.026 L 47.9289 9.026 L 47.9289 12.568 C 47.9289 13.03 48.1529 13.366 48.5729 13.366 C 48.8529 13.366 49.1189 13.254 49.2309 13.128 L 49.5809 14.234 C 49.3149 14.486 48.8809 14.668 48.1949 14.668 Z M 50.2156 11.112 C 50.2156 9.152 51.6436 7.57 53.6456 7.57 C 55.6756 7.57 56.9776 9.124 56.9776 11.252 L 56.9776 11.602 L 51.7556 11.602 C 51.8676 12.624 52.6376 13.464 53.9116 13.464 C 54.5696 13.464 55.3536 13.198 55.8296 12.722 L 56.5016 13.688 C 55.8296 14.332 54.8356 14.668 53.7576 14.668 C 51.7276 14.668 50.2156 13.254 50.2156 11.112 Z M 53.6456 8.774 C 52.3856 8.774 51.8116 9.74 51.7416 10.566 L 55.5496 10.566 C 55.5216 9.768 54.9756 8.774 53.6456 8.774 Z M 64.4626 14.5 L 62.9926 14.5 L 62.9926 10.272 C 62.9926 9.222 62.4606 8.872 61.6346 8.872 C 60.8786 8.872 60.2346 9.32 59.8986 9.782 L 59.8986 14.5 L 58.4286 14.5 L 58.4286 7.738 L 59.8986 7.738 L 59.8986 8.662 C 60.3466 8.13 61.2146 7.57 62.2786 7.57 C 63.7346 7.57 64.4626 8.354 64.4626 9.74 L 64.4626 14.5 Z M 75.7636 14.5 L 70.0096 14.5 L 70.0096 5.162 L 71.6476 5.162 L 71.6476 13.058 L 75.7636 13.058 L 75.7636 14.5 Z M 77.928 6.618 C 77.438 6.618 77.018 6.212 77.018 5.708 C 77.018 5.204 77.438 4.798 77.928 4.798 C 78.432 4.798 78.838 5.204 78.838 5.708 C 78.838 6.212 78.432 6.618 77.928 6.618 Z M 78.67 14.5 L 77.2 14.5 L 77.2 7.738 L 78.67 7.738 L 78.67 14.5 Z M 83.937 14.5 L 82.355 14.5 L 79.597 7.738 L 81.165 7.738 L 83.139 12.806 L 85.113 7.738 L 86.695 7.738 L 83.937 14.5 Z M 87.198 11.112 C 87.198 9.152 88.626 7.57 90.628 7.57 C 92.658 7.57 93.96 9.124 93.96 11.252 L 93.96 11.602 L 88.738 11.602 C 88.85 12.624 89.62 13.464 90.894 13.464 C 91.552 13.464 92.336 13.198 92.812 12.722 L 93.484 13.688 C 92.812 14.332 91.818 14.668 90.74 14.668 C 88.71 14.668 87.198 13.254 87.198 11.112 Z M 90.628 8.774 C 89.368 8.774 88.794 9.74 88.724 10.566 L 92.532 10.566 C 92.504 9.768 91.958 8.774 90.628 8.774 Z" stroke-linecap="round" /></g><g transform="matrix(1 0 0 1 14.26 0)"  ><path style="stroke: none; stroke-width: 1; stroke-dasharray: none; stroke-linecap: butt; stroke-dashoffset: 0; stroke-linejoin: miter; stroke-miterlimit: 4; fill: rgb(208,35,42); fill-rule: nonzero; opacity: 1;"  transform=" translate(-104.26, -10)" d="M 103.464 4.79523 L 105.116 4.79523 L 106.478 11.425 L 106.511 11.425 L 107.63 4.79523 L 109.514 4.79523 L 107.454 15.2051 L 105.77 15.2051 L 104.307 8.32762 L 104.274 8.32762 L 102.912 15.2051 L 101.225 15.2051 L 99 4.79523 L 100.885 4.79523 L 102.117 11.425 L 102.15 11.425 L 103.464 4.79523 Z" stroke-linecap="round" /></g><g transform="matrix(1 0 0 1 23.15 0)"  ><path style="stroke: none; stroke-width: 1; stroke-dasharray: none; stroke-linecap: butt; stroke-dashoffset: 0; stroke-linejoin: miter; stroke-miterlimit: 4; fill: rgb(208,35,42); fill-rule: nonzero; opacity: 1;"  transform=" translate(-113.15, -10)" d="M 109.983 4.79523 L 112.967 4.79523 C 115.125 4.79523 116.082 5.77574 116.082 7.54949 C 116.082 8.44393 115.661 9.38024 114.687 9.72685 C 115.709 10.1305 116.31 10.8516 116.31 12.1915 C 116.31 13.9083 115.45 15.2051 113.162 15.2051 L 109.983 15.2051 L 109.983 4.79523 Z M 111.996 9.06271 L 112.725 9.06271 C 113.488 9.06271 114.072 8.59746 114.072 7.73675 C 114.072 6.77137 113.65 6.26657 112.763 6.26657 L 112.001 6.26657 L 111.996 9.06271 Z M 111.996 13.735 L 112.836 13.735 C 113.907 13.735 114.297 13.1871 114.297 12.1345 C 114.297 11.0819 113.845 10.5341 112.644 10.5341 L 111.99 10.5341 L 111.996 13.735 Z" stroke-linecap="round" /></g><g transform="matrix(1 0 0 1 30.09 0)"  ><path style="stroke: none; stroke-width: 1; stroke-dasharray: none; stroke-linecap: butt; stroke-dashoffset: 0; stroke-linejoin: miter; stroke-miterlimit: 4; fill: rgb(208,35,42); fill-rule: nonzero; opacity: 1;"  transform=" translate(-120.09, -10)" d="M 117.287 15.2051 L 117.287 4.79523 L 122.674 4.79523 L 122.674 6.35264 L 119.297 6.35264 L 119.297 9.03479 L 121.892 9.03479 L 121.892 10.5922 L 119.297 10.5922 L 119.297 13.6477 L 122.898 13.6477 L 122.898 15.2051 L 117.287 15.2051 Z" stroke-linecap="round" /></g><g transform="matrix(1 0 0 1 36.31 0)"  ><path style="stroke: none; stroke-width: 1; stroke-dasharray: none; stroke-linecap: butt; stroke-dashoffset: 0; stroke-linejoin: miter; stroke-miterlimit: 4; fill: rgb(208,35,42); fill-rule: nonzero; opacity: 1;"  transform=" translate(-126.31, -10)" d="M 123.871 6.35264 L 123.871 4.79523 L 129.196 4.79523 L 129.196 6.49687 L 125.493 13.6477 L 129.196 13.6477 L 129.196 15.2051 L 123.417 15.2051 L 123.417 13.5047 L 127.164 6.35264 L 123.871 6.35264 Z" stroke-linecap="round" /></g><g transform="matrix(1 0 0 1 43.1 0)"  ><path style="stroke: none; stroke-width: 1; stroke-dasharray: none; stroke-linecap: butt; stroke-dashoffset: 0; stroke-linejoin: miter; stroke-miterlimit: 4; fill: rgb(34,31,31); fill-rule: nonzero; opacity: 1;"  transform=" translate(-133.1, -10)" d="M 134.123 8.27057 L 134.123 7.46336 C 134.123 6.58288 133.669 6.20836 133.149 6.20836 C 132.338 6.20836 132.079 6.58288 132.079 7.36217 L 132.079 12.6392 C 132.079 13.4174 132.34 13.7919 133.149 13.7919 C 133.879 13.7919 134.123 13.4174 134.123 12.7451 L 134.123 11.4854 L 136.132 11.4854 L 136.132 12.6823 C 136.132 14.1525 135.158 15.3493 133.146 15.3493 C 131.037 15.3493 130.064 14.1525 130.064 12.6823 L 130.064 7.31914 C 130.064 5.84779 131.037 4.65094 133.146 4.65094 C 135.161 4.65094 136.132 5.95131 136.132 7.5064 L 136.132 8.27057 L 134.123 8.27057 Z" stroke-linecap="round" /></g><g transform="matrix(1 0 0 1 50.45 0)"  ><path style="stroke: none; stroke-width: 1; stroke-dasharray: none; stroke-linecap: butt; stroke-dashoffset: 0; stroke-linejoin: miter; stroke-miterlimit: 4; fill: rgb(34,31,31); fill-rule: nonzero; opacity: 1;"  transform=" translate(-140.45, -10)" d="M 137.368 15.2049 L 137.368 4.79498 L 139.38 4.79498 L 139.38 9.03455 L 141.521 9.03455 L 141.521 4.79498 L 143.532 4.79498 L 143.532 15.2049 L 141.521 15.2049 L 141.521 10.592 L 139.38 10.592 L 139.38 15.2049 L 137.368 15.2049 Z" stroke-linecap="round" /></g><g transform="matrix(1 0 0 1 55.95 0)"  ><path style="stroke: none; stroke-width: 1; stroke-dasharray: none; stroke-linecap: butt; stroke-dashoffset: 0; stroke-linejoin: miter; stroke-miterlimit: 4; fill: rgb(34,31,31); fill-rule: nonzero; opacity: 1;"  transform=" translate(-145.95, -10)" d="M 144.943 15.2049 L 144.943 4.79498 L 146.955 4.79498 L 146.955 15.2049 L 144.943 15.2049 Z" stroke-linecap="round" /></g><g transform="matrix(1 0 0 1 61.4 0)"  ><path style="stroke: none; stroke-width: 1; stroke-dasharray: none; stroke-linecap: butt; stroke-dashoffset: 0; stroke-linejoin: miter; stroke-miterlimit: 4; fill: rgb(34,31,31); fill-rule: nonzero; opacity: 1;"  transform=" translate(-151.4, -10)" d="M 152.422 8.27032 L 152.422 7.46312 C 152.422 6.58264 151.968 6.20811 151.448 6.20811 C 150.637 6.20811 150.378 6.58264 150.378 7.36193 L 150.378 12.639 C 150.378 13.4171 150.639 13.7916 151.448 13.7916 C 152.179 13.7916 152.422 13.4171 152.422 12.7448 L 152.422 11.4852 L 154.433 11.4852 L 154.433 12.682 C 154.433 14.1522 153.46 15.3491 151.448 15.3491 C 149.34 15.3491 148.366 14.1522 148.366 12.682 L 148.366 7.31889 C 148.366 5.84755 149.34 4.6507 151.448 4.6507 C 153.46 4.6507 154.433 5.94874 154.433 7.50615 L 154.433 8.27032 L 152.422 8.27032 Z" stroke-linecap="round" /></g><g transform="matrix(1 0 0 1 68.29 0)"  ><path style="stroke: none; stroke-width: 1; stroke-dasharray: none; stroke-linecap: butt; stroke-dashoffset: 0; stroke-linejoin: miter; stroke-miterlimit: 4; fill: rgb(34,31,31); fill-rule: nonzero; opacity: 1;"  transform=" translate(-158.29, -10)" d="M 156.834 15.2049 L 154.888 15.2049 L 157.044 4.79498 L 159.543 4.79498 L 161.701 15.2049 L 159.755 15.2049 L 159.398 12.8984 L 157.191 12.8984 L 156.834 15.2049 Z M 157.488 11.341 L 159.111 11.341 L 158.315 6.87115 L 158.283 6.87115 L 157.488 11.341 Z" stroke-linecap="round" /></g><g transform="matrix(1 0 0 1 75.09 0)"  ><path style="stroke: none; stroke-width: 1; stroke-dasharray: none; stroke-linecap: butt; stroke-dashoffset: 0; stroke-linejoin: miter; stroke-miterlimit: 4; fill: rgb(34,31,31); fill-rule: nonzero; opacity: 1;"  transform=" translate(-165.09, -10)" d="M 164.831 9.92777 L 168.125 9.92777 L 168.125 15.2048 L 167.149 15.2048 L 166.776 14.4267 C 166.175 15.0606 165.688 15.3491 164.747 15.3491 C 163.157 15.3491 162.054 14.3395 162.054 12.682 L 162.054 7.31889 C 162.054 5.84755 163.027 4.6507 165.006 4.6507 C 167.018 4.6507 168.027 5.95106 168.027 7.50615 L 168.027 8.16913 L 166.112 8.16913 C 166.112 6.61171 165.756 6.20811 164.96 6.20811 C 164.474 6.20811 164.069 6.46749 164.069 7.34681 L 164.069 12.6972 C 164.069 13.3613 164.311 13.7928 165.009 13.7928 C 165.82 13.7928 166.112 13.3892 166.112 12.3517 L 166.112 11.341 L 164.831 11.341 L 164.831 9.92777 Z" stroke-linecap="round" /></g><g transform="matrix(1 0 0 1 82.44 0)"  ><path style="stroke: none; stroke-width: 1; stroke-dasharray: none; stroke-linecap: butt; stroke-dashoffset: 0; stroke-linejoin: miter; stroke-miterlimit: 4; fill: rgb(34,31,31); fill-rule: nonzero; opacity: 1;"  transform=" translate(-172.44, -10)" d="M 169.358 7.31889 C 169.358 5.84755 170.332 4.6507 172.442 4.6507 C 174.551 4.6507 175.526 5.84755 175.526 7.31889 L 175.526 12.682 C 175.526 14.1522 174.553 15.3491 172.444 15.3491 C 170.336 15.3491 169.361 14.1522 169.361 12.682 L 169.358 7.31889 Z M 171.37 12.639 C 171.37 13.4171 171.632 13.7916 172.442 13.7916 C 173.252 13.7916 173.512 13.4171 173.512 12.639 L 173.512 7.36193 C 173.512 6.58264 173.251 6.20811 172.442 6.20811 C 171.633 6.20811 171.37 6.58264 171.37 7.36193 L 171.37 12.639 Z" stroke-linecap="round" /></g></g></g></g></g></svg>