<svg xmlns="http://www.w3.org/2000/svg" viewBox="0 0 15 15"><g transform="matrix(1 0 0 1 0 0)"  ><g style=""   ><g transform="matrix(1 0 0 1 7.5 7.5)"  ><g style=""   ><g transform="matrix(1 0 0 1 -1.5 -1.5)"  ><circle style="stroke: none; stroke-width: 1; stroke-dasharray: none; stroke-linecap: butt; stroke-dashoffset: 0; stroke-linejoin: miter; stroke-miterlimit: 4; fill: rgb(0,174,205); fill-rule: nonzero; opacity: 1;"  cx="0" cy="0" r="0.67" /></g><g transform="matrix(1 0 0 1 0.12 0.06)"  ><path style="stroke: none; stroke-width: 1; stroke-dasharray: none; stroke-linecap: butt; stroke-dashoffset: 0; stroke-linejoin: miter; stroke-miterlimit: 4; fill: rgb(0,174,205); fill-rule: nonzero; opacity: 1;"  transform=" translate(-7.62, -7.56)" d="M 4.2 11.3 Q 3.3000000000000003 11.8 3.3000000000000003 10.75 L 3.3000000000000003 4.1 Q 3.3000000000000003 3.0999999999999996 4.300000000000001 3.4999999999999996 L 10.4 7 Q 12 7.5 10.4 8 L 6.65 10 L 6.65 7.75 C 6.650000004095133 7.517777363829605 6.526110704883751 7.303194797255449 6.3250000033089195 7.1870834779880886 C 6.1238893017340885 7.070972158720728 5.876110698265912 7.070972158720728 5.674999996691081 7.1870834779880886 C 5.473889295116251 7.303194797255449 5.349999995904868 7.517777363829605 5.3500000000000005 7.75 L 5.3500000000000005 10.75 C 5.352142999206916 11.060315978561592 5.514001370925683 11.347637674189091 5.778290856753555 11.510277357775474 C 6.042580342581426 11.672917041361856 6.372013998036321 11.68792890091815 6.65 11.55 L 12.7 8.2 Q 13.7 7.499999999999999 12.7 6.699999999999999 L 3.3 1.6 Q 2.1999999999999997 1.3 1.7999999999999998 2.5 L 1.7999999999999998 12.5 Q 2.1999999999999997 13.9 3.3 13.3 L 4.8 12.5 C 5.131370849898476 12.334314575050762 5.265685424949238 11.931370849898476 5.1 11.600000000000001 C 4.934314575050761 11.268629150101525 4.531370849898476 11.134314575050762 4.2 11.3 z" stroke-linecap="round" /></g></g></g></g></g></svg>